<svg xmlns="http://www.w3.org/2000/svg" width="228.07" height="185.24"><path d="m0 7.74 6.2 177.5h.03l221.84-7.75L221.87 0Z" style="fill:#5ea62b;stroke-width:0"/><path d="M31.7 144.83v2.13c0 7.45 4.02 11.18 10.29 11.18s10.17-3.73 10.17-10.41c0-5.74-2.9-8.34-7.22-10.88l-3.37-2.13c-1.89-1.18-3.02-2.42-3.02-4.91s1.01-4.02 3.07-4.02c2.37 0 3.43 1.77 3.43 5.15v2.19h6.45V131c0-7.16-3.43-11.06-9.88-11.06-5.97 0-9.82 4.14-9.82 10.35s3.19 8.75 6.8 11l3.07 1.95c2.25 1.48 3.67 2.42 3.67 5.09 0 2.48-1.12 3.96-3.37 3.96-2.48 0-3.78-2.01-3.78-5.2v-2.25h-6.51zm33.44 12.84v-31.23h4.59v-6.03H53.4v6.03h4.41v31.23zm7.77-37.26h7.33v37.26h-7.33zm19 37.26v-15.14h5.7v-6.03h-5.7v-10.06h7.48v-6.03H84.58v37.26zm22.44 0v-31.23h4.58v-6.03H102.6v6.03h4.41v31.23zm18.53.53c8.34 0 10.94-5.2 10.94-12.83v-24.96h-7.51v25.43c0 4.08-.65 6.33-3.43 6.33-2.78 0-3.37-2.25-3.37-6.33v-25.43H122v24.96c0 7.63 2.54 12.83 10.88 12.83m30-18.16h-.24l-7.92-19.63h-6.74v37.26h6.8v-21.71h.24l9.1 21.71h5.56v-37.26h-6.8zm32.19 17.63v-18.98h-9.99v5.56h3.07v.71c0 4.38-.77 7.1-3.55 7.1s-3.61-2.72-3.61-7.1v-12c0-4.32.65-7.04 3.49-7.04 2.84 0 3.37 2.72 3.37 7.04v2.07h7.16v-.83c0-8.93-2.72-14.25-10.53-14.25-7.81 0-11.06 5.86-11.06 16.44v5.32c0 10.59 2.9 16.44 9.88 16.44 2.84 0 5.44-1.3 6.27-4.02l.59 3.55h4.91z" style="fill:#d7e9ca;stroke-width:0"/><path d="M48.11 53.3h-5.79l2.83-14.53h.26zm10.74 14.85-8.62-40.51h-9.45l-8.62 40.51h7.33l1.67-8.75h8.04l1.67 8.75h7.97zM71.6 27.64H61.31v40.51h7.01V42.88h.26l5.27 25.27h5.02l5.08-25.27h.26v25.27h7.39V27.64H81.51l-4.63 23.41h-.26zm38.41 25.66h-5.79l2.83-14.53h.26zm10.74 14.85-8.62-40.51h-9.45l-8.62 40.51h7.33l1.67-8.75h8.04l1.67 8.75h7.97zm17.7-14.53c0 5.66-1.41 8.23-5.21 8.23h-2.06V33.94h2.06c3.79 0 5.21 2.57 5.21 8.23zm8.1-2.38v-6.69c0-11.06-3.73-16.91-12.35-16.91h-11v40.51h11c8.62 0 12.35-5.85 12.35-16.91m22.46 10.35h-11.19V50.73h8.3v-6.56h-8.3V34.2h11.06v-6.56h-18.84v40.51h18.97zm15.13 7.14c9.07 0 11.9-5.66 11.9-13.95V27.64h-8.17v27.65c0 4.44-.71 6.88-3.73 6.88s-3.67-2.44-3.67-6.88V27.64h-8.17v27.14c0 8.3 2.77 13.95 11.83 13.95M45.63 99.48h-5.48l2.63-13.8H43Zm10.29 14.24-8.33-38.78h-8.98l-8.32 38.78h7.01l1.75-8.33h7.67l1.53 8.33zm3.29 0h7.01V91.15h.22l9.42 22.57h5.7V74.94h-7.01v20.38h-.22l-8.11-20.38h-7.01ZM84.84 81.3h6.58v32.42h7.66V81.3h6.8v-6.36H84.84Zm49.73 32.42h7.23V91.15h.22l9.42 22.57h5.7V74.94h-7.01v20.38h-.22l-8.32-20.38h-7.02zm27.17-38.78h7.67v38.78h-7.67zm26.95 25.64c0 4.6-.66 7.45-3.51 7.45-3.07 0-3.72-2.85-3.72-7.45V88.09c0-4.38.66-7.45 3.72-7.45 2.85 0 3.51 3.07 3.51 7.45zm7.89-3.73v-5.04c0-10.95-3.07-17.31-11.39-17.31s-11.61 6.35-11.61 17.31v5.04c0 11.17 3.29 17.31 11.61 17.31s11.39-6.13 11.39-17.31m-74.05 3.73c0 4.6-.66 7.45-3.51 7.45-3.07 0-3.72-2.85-3.72-7.45V88.09c0-4.38.66-7.45 3.72-7.45 2.85 0 3.51 3.07 3.51 7.45zm7.88-3.73v-5.04c0-10.95-3.07-17.31-11.39-17.31s-11.61 6.35-11.61 17.31v5.04c0 11.17 3.29 17.31 11.61 17.31s11.39-6.13 11.39-17.31" style="fill:#fff;stroke-width:0"/></svg>