<?xml version="1.0" encoding="UTF-8"?><svg id="Ebene_1" xmlns="http://www.w3.org/2000/svg" viewBox="0 0 480.73 51.73"><defs><style>.cls-1{fill:#f46f3b;}.cls-2{fill:#181716;}</style></defs><path class="cls-2" d="M272.5,23.16l-4.21,13.96h-2.08l-7.14-20.61h3.95l4.24,13.62,4.18-13.62h2.27l4.14,13.62,4.25-13.62h3.92l-7.18,20.61h-2.08l-4.25-13.96Zm36.29,13.96V16.51h-3.75v2.49c-.97-1.01-2.06-1.77-3.24-2.27-1.19-.5-2.49-.75-3.9-.75-1.57,0-2.98,.26-4.21,.78-1.23,.52-2.36,1.32-3.4,2.41-.95,.99-1.68,2.13-2.19,3.43-.51,1.3-.77,2.67-.77,4.12,0,3.11,1.02,5.7,3.07,7.77,2.05,2.07,4.62,3.1,7.72,3.1,1.32,0,2.57-.25,3.74-.76,1.17-.51,2.23-1.25,3.18-2.24v2.53h3.75Zm-17.61-10.44c0-1.99,.69-3.67,2.07-5.04,1.38-1.38,3.05-2.06,5-2.06s3.54,.72,4.92,2.17c1.38,1.44,2.07,3.17,2.07,5.2,0,1.9-.7,3.56-2.09,4.97-1.39,1.42-3,2.13-4.82,2.13-2,0-3.69-.71-5.07-2.12-1.38-1.41-2.07-3.16-2.07-5.25m26.86,10.44V19.88h2.92v-3.37h-2.92v-6.67h-3.69v6.67h-2.92v3.37h2.92v17.24h3.69Zm21.1-7.03c-.59,1.25-1.41,2.21-2.45,2.9-1.05,.68-2.22,1.02-3.52,1.02-1.93,0-3.55-.69-4.85-2.06-1.3-1.37-1.95-3.09-1.95-5.15s.64-3.75,1.92-5.14c1.28-1.39,2.84-2.08,4.67-2.08,1.42,0,2.65,.31,3.67,.94,1.03,.62,1.86,1.57,2.51,2.83h4.06c-.79-2.36-2.05-4.19-3.78-5.5-1.74-1.31-3.79-1.96-6.15-1.96-1.51,0-2.93,.29-4.25,.88-1.32,.59-2.52,1.45-3.58,2.58-.96,1.04-1.69,2.18-2.18,3.44-.49,1.25-.74,2.6-.74,4.04s.27,2.77,.82,4.11c.54,1.34,1.29,2.52,2.26,3.53,1.01,1.06,2.14,1.86,3.39,2.39,1.25,.54,2.64,.8,4.17,.8,2.44,0,4.5-.64,6.2-1.92,1.7-1.28,2.98-3.17,3.84-5.65h-4.06Zm11.46-2.34c0-1.61,.06-2.79,.18-3.53,.12-.74,.32-1.36,.59-1.87,.45-.85,1.05-1.5,1.8-1.95,.75-.45,1.61-.67,2.59-.67,1.6,0,2.79,.56,3.56,1.67,.77,1.11,1.16,2.81,1.16,5.1v10.63h3.71v-11.82c0-2.89-.69-5.13-2.08-6.73-1.39-1.6-3.33-2.4-5.83-2.4-1.27,0-2.39,.22-3.34,.67-.96,.45-1.74,1.12-2.33,2V9.84h-3.71v27.28h3.71v-9.37Zm23.13,4.76h-3.75v4.6h3.75v-4.6Zm26.21,4.6V9.84h-3.71v9.16c-1-1.01-2.09-1.77-3.29-2.27-1.19-.5-2.49-.75-3.89-.75-1.57,0-2.98,.26-4.21,.78-1.23,.52-2.36,1.32-3.4,2.41-.95,.99-1.68,2.13-2.2,3.43-.51,1.3-.76,2.67-.76,4.12,0,3.11,1.02,5.7,3.07,7.77,2.05,2.07,4.62,3.1,7.72,3.1,1.32,0,2.57-.25,3.74-.76,1.17-.51,2.23-1.25,3.18-2.24v2.53h3.75Zm-17.61-10.44c0-1.99,.69-3.67,2.07-5.04,1.38-1.38,3.05-2.06,5-2.06s3.54,.72,4.92,2.17c1.38,1.44,2.07,3.17,2.07,5.2,0,1.9-.7,3.56-2.09,4.97-1.39,1.42-3,2.13-4.82,2.13-2,0-3.69-.71-5.07-2.12-1.38-1.41-2.07-3.16-2.07-5.25m42.03,1.5v-.58c0-1.44-.15-2.72-.43-3.83-.29-1.12-.73-2.15-1.33-3.08-1.01-1.51-2.29-2.69-3.85-3.53-1.56-.84-3.24-1.26-5.05-1.26-1.52,0-2.93,.28-4.21,.85-1.29,.57-2.44,1.41-3.47,2.54-.96,1.04-1.69,2.19-2.18,3.45-.5,1.26-.74,2.62-.74,4.07s.27,2.77,.81,4.11c.54,1.34,1.3,2.52,2.26,3.53,1.02,1.07,2.17,1.88,3.43,2.42,1.26,.54,2.65,.81,4.17,.81,2.26,0,4.25-.61,5.95-1.82,1.71-1.21,3.03-2.96,3.98-5.25h-4.18c-.6,1.08-1.4,1.9-2.4,2.49-1.01,.59-2.12,.88-3.35,.88-1.71,0-3.18-.53-4.43-1.6-1.24-1.07-2.02-2.46-2.33-4.19h17.35Zm-17.24-3.34c.45-1.65,1.27-2.95,2.46-3.91,1.2-.96,2.6-1.44,4.23-1.44s2.95,.47,4.08,1.4c1.14,.93,1.94,2.25,2.4,3.95h-13.17Z"/><path class="cls-1" d="M19.91,37.12v-2.53c-.95,.99-2.01,1.73-3.18,2.24-1.17,.51-2.41,.76-3.74,.76-3.1,0-5.67-1.04-7.72-3.1-2.05-2.07-3.07-4.66-3.07-7.77,0-1.45,.26-2.83,.77-4.12,.51-1.3,1.24-2.44,2.19-3.43,1.04-1.09,2.17-1.89,3.4-2.41,1.23-.52,2.63-.78,4.21-.78,1.41,0,2.71,.25,3.9,.75,1.19,.5,2.27,1.25,3.24,2.27v-2.49h3.75v20.61h-3.75ZM6.04,26.68c0,2.09,.69,3.83,2.07,5.25,1.38,1.41,3.07,2.12,5.07,2.12,1.82,0,3.43-.71,4.82-2.13,1.39-1.42,2.09-3.08,2.09-4.97,0-2.03-.69-3.76-2.07-5.2-1.38-1.45-3.02-2.17-4.92-2.17s-3.61,.69-4.99,2.06c-1.38,1.37-2.07,3.05-2.07,5.04m25.55,7.91v2.53h-3.75V9.84h3.71v9.16c1-1.01,2.09-1.77,3.29-2.27,1.19-.5,2.49-.75,3.89-.75,1.58,0,2.98,.26,4.21,.78,1.23,.52,2.36,1.32,3.4,2.41,.96,1,1.7,2.15,2.21,3.45,.51,1.3,.77,2.67,.77,4.1,0,3.11-1.02,5.7-3.07,7.77-2.05,2.07-4.63,3.1-7.74,3.1-1.32,0-2.57-.25-3.74-.76-1.17-.5-2.23-1.25-3.18-2.24m-.15-7.64c0,1.9,.7,3.56,2.09,4.97,1.39,1.42,3,2.13,4.82,2.13,1.99,0,3.67-.7,5.04-2.11,1.37-1.41,2.06-3.16,2.06-5.26,0-1.98-.69-3.65-2.08-5.03-1.39-1.38-3.05-2.07-4.98-2.07s-3.53,.72-4.9,2.15c-1.37,1.44-2.05,3.17-2.05,5.21m21.53,11.82h3.95c.58,.96,1.33,1.7,2.26,2.2,.93,.51,2,.76,3.19,.76,2.09,0,3.77-.63,5.04-1.88,1.27-1.26,1.91-2.92,1.91-4.99v-.26c-.95,.99-2.01,1.73-3.18,2.24-1.17,.51-2.41,.76-3.74,.76-3.1,0-5.67-1.04-7.72-3.1-2.05-2.07-3.07-4.66-3.07-7.77,0-1.45,.26-2.83,.77-4.12,.51-1.3,1.24-2.44,2.19-3.43,1.04-1.09,2.17-1.89,3.4-2.41,1.23-.52,2.63-.78,4.21-.78,1.4,0,2.7,.25,3.89,.75,1.19,.5,2.29,1.25,3.29,2.27v-2.49h3.71v17.2c0,3.58-.93,6.39-2.79,8.42-1.86,2.03-4.42,3.04-7.68,3.04-2.36,0-4.38-.56-6.05-1.68-1.67-1.12-2.87-2.69-3.58-4.73m2.49-12.08c0,2.09,.69,3.83,2.07,5.25,1.38,1.41,3.07,2.12,5.07,2.12,1.82,0,3.43-.71,4.82-2.13,1.39-1.42,2.09-3.08,2.09-4.97,0-2.03-.69-3.76-2.07-5.2-1.38-1.45-3.02-2.17-4.92-2.17s-3.61,.69-4.99,2.06c-1.38,1.37-2.07,3.05-2.07,5.04m24.67,1.5c.31,1.72,1.09,3.12,2.33,4.19,1.24,1.07,2.72,1.6,4.43,1.6,1.23,0,2.34-.29,3.35-.88,1-.59,1.81-1.42,2.41-2.49h4.18c-.95,2.29-2.28,4.03-3.98,5.25-1.7,1.21-3.69,1.82-5.95,1.82-1.52,0-2.92-.27-4.18-.81-1.26-.54-2.41-1.34-3.43-2.42-.96-1.01-1.71-2.19-2.26-3.53-.54-1.34-.82-2.71-.82-4.11s.25-2.81,.74-4.07c.49-1.26,1.22-2.41,2.18-3.45,1.02-1.13,2.18-1.97,3.47-2.54,1.28-.57,2.69-.85,4.21-.85,1.81,0,3.49,.42,5.05,1.26,1.55,.84,2.84,2.02,3.85,3.53,.6,.94,1.04,1.96,1.33,3.08,.29,1.12,.43,2.39,.43,3.83v.58h-17.35Zm13.28-3.34c-.46-1.7-1.26-3.01-2.4-3.94-1.14-.93-2.5-1.4-4.08-1.4s-3.03,.48-4.23,1.44c-1.19,.95-2.01,2.26-2.46,3.91h13.17Zm6.09,1.99c0-1.46,.25-2.83,.74-4.09,.49-1.27,1.22-2.41,2.18-3.42,1.04-1.11,2.2-1.97,3.5-2.57,1.3-.6,2.65-.9,4.05-.9,1.5,0,2.89,.27,4.17,.8,1.28,.54,2.44,1.33,3.48,2.38,1.01,1.04,1.79,2.2,2.33,3.5,.54,1.3,.82,2.64,.82,4.03s-.25,2.79-.76,4.12c-.51,1.34-1.22,2.5-2.13,3.5-1.05,1.15-2.22,2.02-3.53,2.61-1.3,.59-2.69,.89-4.17,.89s-2.9-.27-4.18-.82c-1.27-.54-2.42-1.35-3.43-2.41-.96-1.01-1.71-2.19-2.26-3.53-.54-1.34-.81-2.71-.81-4.11m3.84-.04c0,2.06,.65,3.78,1.96,5.15,1.31,1.37,2.93,2.06,4.88,2.06s3.51-.69,4.81-2.07c1.29-1.38,1.94-3.11,1.94-5.18s-.65-3.81-1.94-5.17c-1.29-1.36-2.91-2.04-4.84-2.04s-3.54,.69-4.84,2.07c-1.31,1.38-1.96,3.11-1.96,5.18m24.35-1.15c0-1.9,.36-3.27,1.08-4.13,.72-.86,1.91-1.35,3.57-1.47v-3.88c-1.05,.01-1.97,.24-2.76,.68-.79,.44-1.5,1.12-2.11,2.04v-2.38h-3.49v20.61h3.71v-11.47Zm24,11.47v-2.53c-.95,.99-2.01,1.73-3.18,2.24-1.17,.51-2.41,.76-3.74,.76-3.1,0-5.67-1.04-7.72-3.1-2.05-2.07-3.07-4.66-3.07-7.77,0-1.45,.26-2.83,.77-4.12,.51-1.3,1.24-2.44,2.19-3.43,1.04-1.09,2.17-1.89,3.4-2.41,1.23-.52,2.63-.78,4.21-.78,1.4,0,2.7,.25,3.89,.75,1.19,.5,2.29,1.25,3.29,2.27V9.84h3.71v27.28h-3.75Zm-13.87-10.44c0,2.09,.69,3.83,2.07,5.25,1.38,1.41,3.07,2.12,5.07,2.12,1.82,0,3.43-.71,4.82-2.13,1.4-1.42,2.09-3.08,2.09-4.97,0-2.03-.69-3.76-2.07-5.2-1.38-1.45-3.02-2.17-4.92-2.17s-3.61,.69-4.99,2.06c-1.38,1.37-2.07,3.05-2.07,5.04m25.63,1.07c0-2.86,.41-4.91,1.25-6.16,.83-1.24,2.17-1.86,4.02-1.86,1.7,0,2.95,.53,3.77,1.58,.81,1.05,1.22,2.68,1.22,4.86v10.94h3.73v-11.75c0-2.96-.72-5.23-2.16-6.82-1.44-1.59-3.51-2.38-6.21-2.38-1.2,0-2.26,.21-3.19,.65-.93,.43-1.78,1.11-2.56,2.03v-2.34h-3.56v20.61h3.71v-9.37Zm21.08,.43c.31,1.72,1.09,3.12,2.33,4.19,1.24,1.07,2.72,1.6,4.43,1.6,1.23,0,2.34-.29,3.35-.88,1.01-.59,1.81-1.42,2.41-2.49h4.18c-.95,2.29-2.28,4.03-3.98,5.25-1.71,1.21-3.69,1.82-5.95,1.82-1.52,0-2.92-.27-4.18-.81-1.26-.54-2.4-1.34-3.43-2.42-.96-1.01-1.71-2.19-2.26-3.53-.54-1.34-.81-2.71-.81-4.11s.25-2.81,.74-4.07c.49-1.26,1.22-2.41,2.18-3.45,1.02-1.13,2.18-1.97,3.47-2.54,1.29-.57,2.69-.85,4.21-.85,1.81,0,3.49,.42,5.05,1.26,1.55,.84,2.84,2.02,3.85,3.53,.6,.94,1.04,1.96,1.33,3.08,.29,1.12,.43,2.39,.43,3.83v.58h-17.35Zm13.28-3.34c-.46-1.7-1.26-3.01-2.4-3.94-1.14-.93-2.5-1.4-4.08-1.4s-3.03,.48-4.22,1.44c-1.19,.95-2.02,2.26-2.47,3.91h13.17Zm12.23,12.27V19.88h2.92v-3.37h-2.92v-6.67h-3.69v6.67h-2.92v3.37h2.92v17.24h3.69Zm8.36-8.93c.31,1.72,1.09,3.12,2.33,4.19,1.24,1.07,2.72,1.6,4.43,1.6,1.23,0,2.34-.29,3.34-.88,1-.59,1.81-1.42,2.41-2.49h4.18c-.95,2.29-2.28,4.03-3.98,5.25-1.7,1.21-3.69,1.82-5.95,1.82-1.52,0-2.92-.27-4.18-.81-1.26-.54-2.4-1.34-3.43-2.42-.96-1.01-1.71-2.19-2.26-3.53-.54-1.34-.82-2.71-.82-4.11s.25-2.81,.74-4.07c.49-1.26,1.22-2.41,2.18-3.45,1.02-1.13,2.18-1.97,3.47-2.54,1.28-.57,2.69-.85,4.21-.85,1.81,0,3.49,.42,5.05,1.26,1.56,.84,2.84,2.02,3.85,3.53,.6,.94,1.04,1.96,1.33,3.08,.29,1.12,.43,2.39,.43,3.83v.58h-17.35Zm13.28-3.34c-.46-1.7-1.26-3.01-2.4-3.94-1.14-.93-2.5-1.4-4.09-1.4s-3.03,.48-4.22,1.44c-1.19,.95-2.01,2.26-2.46,3.91h13.17Zm11,2.91c0-2.86,.41-4.91,1.25-6.16,.83-1.24,2.17-1.86,4.02-1.86,1.7,0,2.95,.53,3.76,1.58,.81,1.05,1.22,2.68,1.22,4.86v10.94h3.73v-11.75c0-2.96-.72-5.23-2.16-6.82-1.44-1.59-3.51-2.38-6.21-2.38-1.2,0-2.26,.21-3.19,.65-.93,.43-1.78,1.11-2.56,2.03v-2.34h-3.56v20.61h3.71v-9.37Z"/><path class="cls-1" d="M471.77,3.56h-31.83c-3.67,0-6.66,2.99-6.66,6.66v31.75c0,3.67,2.99,6.65,6.66,6.65h31.83c3.67,0,6.66-2.9,6.66-6.57V10.21c0-3.67-2.99-6.66-6.66-6.66m3.28,37.63c0,2.27-1.78,4.06-4.06,4.06h-30.27c-2.27,0-4.06-1.79-4.06-4.06V10.99c0-2.27,1.79-4.06,4.06-4.06h30.27c2.27,0,4.06,1.78,4.06,4.06v30.2Zm-10.14-23.71c-2.03-2.19-4.79-3.57-7.63-3.9l.24-3.98c3.98,.41,7.63,2.19,10.39,5.11,2.76,2.92,4.38,6.66,4.62,10.71h-4.06c-.24-2.92-1.46-5.76-3.57-7.95m-9.33-8.03l-.16,4.06c-3.33,0-6.41,1.3-8.76,3.57l-2.76-2.92c3.16-3.08,7.3-4.71,11.69-4.71q.08,0,0,0m8.93,26.22c1.06-.9,1.87-2.03,2.44-3.17l3.89,1.22c-.89,1.79-2.11,3.49-3.57,4.87l-2.76-2.92Zm6.98-3.65l-3.81-1.22c.49-1.14,.73-2.35,.81-3.65h4.06c-.08,1.71-.41,3.41-1.05,4.87m-9.98-9.18l2.92-2.84c1.22,1.62,1.95,3.49,2.11,5.52h-4.06c-.16-.97-.49-1.87-.97-2.68m.89,4.47h4.06c-.16,2.68-1.38,5.19-3.33,7.06l-2.76-2.92c1.14-1.14,1.87-2.6,2.03-4.14m-14.37-8.78c1.95-1.95,4.55-3,7.39-3l-.24,4.06c-1.71,.08-3.16,.73-4.38,1.87l-2.76-2.92Zm12.34,2.92c-.97-.89-2.19-1.54-3.49-1.79l.24-4.06c2.27,.33,4.38,1.38,6.09,3l-2.84,2.84Z"/></svg>