<svg xmlns="http://www.w3.org/2000/svg" viewBox="0 0 266.46 32.6"><defs><style>.cls-2{fill-rule:evenodd;fill:#1d1d1b}</style></defs><g id="Ebene_1"><path d="M18.33 1.27C8.89 1.27 1.21 8.01 1.21 16.3s7.68 15.03 17.12 15.03 17.12-6.74 17.12-15.03S27.77 1.27 18.33 1.27Z" style="fill:#fff"/><path d="M18.21 1.71c-.42.73-1.07 1.54-1.83 2.5-2.22 2.8-5.26 6.62-5.28 11.91-.03 7.64 3.69 12.62 7.28 14.83 3.55-2.18 7.25-7.16 7.25-14.83-.02-5.25-3.19-9.08-5.5-11.88-.8-.97-1.48-1.79-1.92-2.52Z" style="fill:#95c11f"/><path d="M127.28 21.13v3.31c0 .69.83 1.34 1.43 1.34v.29h-5.23v-.29c.66 0 1.48-.66 1.48-1.34v-7.51c0-1.69-1.51-1.51-2-1.4-1.97.51-3.08 2.23-3.08 2.4v6.51c0 .69.88 1.34 1.48 1.34v.29h-5.26v-.29c.63 0 1.49-.66 1.49-1.34V9.59c0-.26-.34-.54-1.17-1.37v-.26l3.46-1v9.8c.49-.89 7.4-5.28 7.4.86v3.51ZM232.91 21.13v3.31c0 .69.83 1.34 1.43 1.34v.29h-5.23v-.29c.66 0 1.48-.66 1.48-1.34v-7.51c0-1.69-1.51-1.51-2-1.4-1.97.51-3.09 2.23-3.09 2.4v6.51c0 .69.86 1.34 1.46 1.34v.29h-5.26v-.29c.66 0 1.51-.66 1.51-1.34V9.59c0-.26-.34-.54-1.17-1.37v-.26l3.46-1v9.8c.49-.89 7.4-5.28 7.4.86v3.51ZM212.66 16.64v7.8c0 .66.86 1.34 1.46 1.34v.29h-5.26v-.29c.66 0 1.52-.66 1.52-1.34V9.59c0-.26-.37-.54-1.17-1.37v-.26l3.46-1v9.68ZM245.85 16.64v7.8c0 .66.89 1.34 1.49 1.34v.29h-5.26v-.29c.63 0 1.51-.66 1.51-1.34V9.59c0-.26-.37-.54-1.2-1.37v-.26l3.46-1v9.68ZM170.98 18.84v5.6c0 .63.83 1.34 1.43 1.34v.29h-5.23v-.29c.66 0 1.49-.66 1.49-1.34v-7.51c0-1.69-1.51-1.51-2-1.4-1.97.51-3.09 2.23-3.09 2.4v6.51c0 .69.88 1.34 1.49 1.34v.29h-5.26v-.29c.63 0 1.49-.66 1.49-1.34v-7.2c0-.26-.34-.51-1.17-1.37v-.26l3.46-1v2.14c.46-.83 6.86-4.88 7.4.11.49-.91 7.48-5.4 7.48.74v6.83c0 .69.86 1.34 1.46 1.34v.29h-5.26v-.29c.66 0 1.51-.66 1.51-1.34v-7.51c0-1.69-1.51-1.54-2.03-1.4-1.63.49-3.17 1.63-3.17 3.31ZM252.31 15.41v9.03c0 .57.88 1.34 1.48 1.34v.29h-5.26v-.29c.63 0 1.51-.66 1.51-1.34v-9.03h-1.06c1.83-5.77 2.2-8.4 4.29-8.4.4 0 2.63.14 2.86 1.91.23 1.63-.97 1.77-1.63 1.6-1.31-.4.2-2.83-1.14-2.97-2.26-.26-1.06 2.97-1.06 6.46v.49h2.77l-.2.91h-2.57ZM158.41 10.04c0-.77-1.49-2.57-2.49-2.57v-.31h5.49v.31c-1 0-2.52 1.77-2.52 2.57v10.37c0 4.71-2.63 6.08-6.6 6.31-7.03 0-8.05-3.74-8.05-6.71V9.5c0-.77-.8-2-1.83-2v-.34h6.46v.34c-1 0-1.83 1.23-1.83 2v10.51c0 4.26 1.94 5.91 5.26 5.91 1.51 0 6.11-.03 6.11-5.77V10.04Z" class="cls-2"/><path d="m116.05 22.56.26.08c-1.2 3.51-3.57 3.74-4.91 3.74-6.86.17-7.74-11.51 0-11.88.26 0 3.2 0 4.77 2.14.4.63.43 2.88-1.14 2.77-2.66-.14-.2-3.37-2.23-4.4-1.03-.51-5.2-.51-4.6 5.17.43 4.08 6 5.68 7.86 2.37Z" class="cls-2"/><path d="M96.91 21.81h.31c.8 1.89 2.17 3.51 3.6 4.06.88.31 2.49-.26 2.49-1.83 0-2.06-3.51-2.8-4.34-3.28-.94-.4-1.97-.86-2.06-3.17-.09-2.51 4.26-4.29 7.26-2.11v2.71h-.26c-.46-.97-1.37-2.66-2.91-3.11-2.08-.6-2.37.83-2.2 2.09.51 1.66 3.8 1.74 5.29 3.17 2.63 2.57.46 6.06-3.09 6.06-.6 0-3 0-4.09-.77v-3.8ZM90.51 15.44h-1.43v-.37l3.49-4.08h.26v3.48h3.43l-.74.97h-2.69v6.94c0 2.69 2.4 3.69 3.48 2.34.34-.43.54-.57.34.06-.88 2.17-6.14 2.66-6.14-1.8v-7.54ZM215.34 15.44h-1.46v-.37l3.51-4.08h.26v3.48h3.43l-.77.97h-2.66v6.94c0 2.69 2.37 3.69 3.49 2.34.34-.43.54-.57.34.06-.89 2.17-6.14 2.66-6.14-1.8v-7.54ZM78.17 19.67v-1.83c0-.37.2-.77-1.46-2.03v-.23l3.77-1.08v8.88c0 1.66 1.46 2.06 2 1.88 2-.54 3.06-2.23 3.06-2.37v-5.14c0-.6.2-.77-1.46-2v-.2l3.74-1.06v9.08c0 .26.37.54 1.2 1.37v.26l-3.49 1.03v-2.2c-.46.89-7.37 5.29-7.37-.83v-3.54ZM74.2 18.9c.54-5.23-5.63-5.63-6 0h6Zm2.03 3.94.23.11c-.92 1.97-2.03 3.37-4.97 3.51-2.94.14-5.63-2.14-5.86-5.77-.23-3.23 2.66-6.23 5.54-6.23 3.31 0 5.43 2 5.4 4.86h-8.4c-.2 3.17 1.51 4.83 3.37 5.2 1.63.34 2.97.23 4.68-1.69ZM137.44 18.9c.54-5.23-5.63-5.63-6 0h6Zm2.03 3.94.2.11c-.89 1.97-2 3.37-4.94 3.51-2.94.14-5.63-2.14-5.85-5.77-.23-3.23 2.66-6.23 5.54-6.23 3.31 0 5.4 2 5.4 4.86h-8.4c-.2 3.17 1.51 4.83 3.37 5.2 1.63.34 2.97.23 4.68-1.69ZM263.42 18.9c.54-5.23-5.63-5.63-6 0h6Zm2.02 3.94.23.11c-.92 1.97-2.03 3.37-4.94 3.51-2.97.14-5.66-2.14-5.88-5.77-.23-3.23 2.66-6.23 5.54-6.23 3.34 0 5.43 2 5.4 4.86h-8.4c-.2 3.17 1.51 4.83 3.37 5.2 1.63.34 2.97.23 4.68-1.69ZM206.34 18.9c.54-5.23-5.63-5.63-6 0h6Zm2.03 3.94.23.11c-.91 1.97-2.03 3.37-4.94 3.51-2.97.14-5.66-2.14-5.88-5.77-.23-3.23 2.66-6.23 5.54-6.23 3.34 0 5.43 2 5.4 4.86h-8.4c-.2 3.17 1.51 4.83 3.37 5.2 1.63.34 2.97.23 4.68-1.69ZM48.98 13.19V8.76c0-.71-.31-1.43-2.09-1.43v-.29c2.69-.09 6.86-.09 9.6-.09 5.26 0 8.68 5.34 8.63 9.37-.09 7.43-5.06 9.74-9.48 9.74H46.9v-.4c1.46 0 2.09-.97 2.09-3.29v-9.2Zm2.91-5.55v15.83c0 1.94 1.26 2.23 3.23 2.23 4.43 0 6.77-3.31 6.77-8.88 0-6.91-3.08-8.74-5.14-9.26-1.17-.29-3.6-.46-4.86.09ZM197.12 16.64l-4.63 9.8h-.43l-2.97-8.08-4.54 8.08h-.43l-3.6-9.63c-.31-.89-.57-1.74-1.2-1.74v-.31H184v.31c-.69 0-1.09.6-.71 1.6l2.4 6.68 3.17-5.57-.37-.97c-.51-1.34-.57-1.74-1.11-1.74v-.34h4.57v.34c-.69 0-1.2.14-.71 1.6l2.34 6.34 2.97-6.37c.37-.83 0-1.57-.86-1.57v-.34h3.11v.34c-.54 0-1.26.63-1.69 1.57ZM239.25 16.64v7.8c0 .66.86 1.34 1.46 1.34v.29h-5.26v-.29c.63 0 1.51-.66 1.51-1.34v-7.28c0-.29-.37-.54-1.17-1.37v-.26l3.46-1.03v2.14ZM238.11 7.02c.86 0 1.57.71 1.57 1.57s-.71 1.54-1.57 1.54-1.57-.68-1.57-1.54.71-1.57 1.57-1.57Z" class="cls-2"/><path d="M18.33.71C8.61.71.71 7.7.71 16.3s7.9 15.59 17.62 15.59S35.95 24.9 35.95 16.3 28.04.71 18.33.71Zm7.89 15.75h3.62c-.02 2.05-.4 4-1.05 5.75h-3.45c.53-1.71.85-3.62.88-5.75Zm-.01-1.01c-.12-2.18-.76-4.1-1.62-5.78h3.94c.74 1.75 1.2 3.71 1.3 5.78h-3.62Zm8.69 0h-4.06c-.09-2.06-.52-4.02-1.23-5.78h3.49c1.03 1.75 1.66 3.71 1.79 5.78Zm.02 1.01a12.98 12.98 0 0 1-1.44 5.75h-3.62c.62-1.77.98-3.71 1-5.75h4.06Zm-2.47-7.81h-3.28c-1.26-2.64-3.14-4.79-5.41-6.12 3.63 1.11 6.69 3.29 8.69 6.12Zm-4.4 0h-4.02c-1.01-1.69-2.2-3.14-3.22-4.37-.68-.82-1.3-1.57-1.69-2.2 3.75.32 7.01 2.86 8.93 6.57Zm-9.3-5.34c.36.49.79 1.02 1.28 1.61.94 1.14 2.03 2.46 2.97 3.99l-4.26 2.61V3.31Zm0 9.41 4.76-2.93c.89 1.65 1.56 3.53 1.68 5.67l-6.45 4.18v-6.92Zm6.46 3.95c-.05 2.04-.38 3.86-.9 5.48l-5.55 3.46v-4.75l6.46-4.19Zm-18.42-.21h3.73c.02 2.13.34 4.05.87 5.75H7.84c-.66-1.75-1.03-3.7-1.05-5.75Zm3.74-1.01H6.8c.1-2.08.56-4.04 1.3-5.78h3.98c-.83 1.68-1.43 3.6-1.55 5.78Zm2.62-5.65 4.59 2.82v6.92l-6.19-4.02c.11-2.16.75-4.06 1.61-5.72Zm-1.62 6.93 6.2 4.02v4.75l-5.29-3.29a19.08 19.08 0 0 1-.92-5.48Zm6.21-5.3-4.1-2.52c.9-1.54 1.96-2.87 2.86-4.01.47-.6.89-1.13 1.24-1.62v8.14Zm-2.03-7.16c-.98 1.24-2.13 2.68-3.09 4.38H8.59c1.88-3.64 5.06-6.15 8.72-6.55-.37.62-.96 1.36-1.6 2.18Zm-2.84-1.73C10.6 3.87 8.71 6.02 7.45 8.65H4.2c1.99-2.82 5.04-5 8.67-6.11ZM3.55 9.67H7c-.7 1.77-1.13 3.72-1.22 5.78H1.75c.14-2.07.77-4.03 1.8-5.78Zm2.22 6.79c.02 2.04.38 3.98 1 5.75h-3.6c-.9-1.76-1.41-3.71-1.44-5.75h4.04Zm-2.03 6.77h3.42c1.27 3 3.32 5.42 5.83 6.86-3.97-1.19-7.27-3.67-9.25-6.86Zm4.52 0h3.48c1.24 3.3 3.27 5.71 5.35 7.21-3.79-.5-7.04-3.29-8.83-7.21Zm4.8.55 4.68 2.91v2.98c-1.76-1.26-3.49-3.23-4.68-5.9Zm5.69 3.03 4.96-3.09c-1.24 2.84-3.1 4.9-4.96 6.15v-3.06Zm6.24-3.58h3.38c-1.76 3.87-4.94 6.63-8.66 7.19 2.05-1.5 4.05-3.9 5.28-7.19Zm-1.35 6.87c2.51-1.44 4.56-3.87 5.83-6.87h3.44c-1.98 3.2-5.29 5.68-9.27 6.87Z" style="fill:#1d1d1b"/></g></svg>