<svg xmlns="http://www.w3.org/2000/svg" xml:space="preserve" width="1616.012" height="732"><style>path,polygon,rect{fill:#000}</style><path d="M797.322 243.165c-16.883 0-28.188-12.048-28.188-27.703s11.306-27.666 28.188-27.666c16.844 0 28.11 12.085 28.11 27.666.002 15.655-11.266 27.703-28.11 27.703zm0-44.995c-9.67 0-15.322 6.544-15.322 17.291 0 10.858 5.652 17.291 15.322 17.291 9.594 0 15.246-6.433 15.246-17.291 0-10.747-5.652-17.291-15.246-17.291zM860.322 224.46v18.109h-12.568v-54.18h19.113c15.246 0 21.791 7.697 21.791 17.7 0 10.821-6.805 18.37-21.791 18.37l-6.545.001zm0-9.482h6.545c6.545 0 9.223-3.272 9.223-8.888 0-4.945-2.899-8.292-9.223-8.292h-6.545v17.18zM946.451 188.39v9.668h-22.238v12.643h17.031v9.297h-17.031v12.903h22.238v9.668H911.57v-54.18l34.881.001zM983.643 190.324l25.732 32.538c-.185-2.083-.297-4.054-.297-5.802v-28.67h11.082v54.18h-6.545c-1.935 0-3.162-.483-4.39-2.082L983.68 208.21c.148 1.896.263 3.719.263 5.317v29.042H972.86v-54.18h6.619c2.156.001 2.789.262 4.164 1.935zM784.529 310.818h2.008c1.859 0 3.199-.595 4.016-1.747l12.197-17.701c1.34-1.934 2.938-2.491 5.43-2.491h10.933l-16.062 21.902c-1.153 1.6-2.381 2.566-3.682 3.272 1.896.707 3.42 1.822 4.723 3.867l16.361 25.138h-11.23c-2.862 0-3.903-.818-4.907-2.306L792.041 321.9c-.893-1.376-2.119-1.896-4.463-1.896h-3.049v23.055h-12.568v-54.18h12.568v21.939zM855.115 290.812l25.731 32.538c-.186-2.083-.297-4.054-.297-5.802v-28.67h11.082v54.18h-6.545c-1.934 0-3.162-.483-4.389-2.082l-25.547-32.277c.147 1.897.262 3.719.262 5.317v29.042H844.33v-54.18h6.619c2.158 0 2.791.261 4.166 1.934zM943.775 343.653c-16.884 0-28.188-12.048-28.188-27.703s11.305-27.666 28.188-27.666c16.846 0 28.112 12.085 28.112 27.666.002 15.655-11.266 27.703-28.112 27.703zm0-44.994c-9.668 0-15.32 6.544-15.32 17.291 0 10.858 5.652 17.291 15.32 17.291 9.594 0 15.246-6.433 15.246-17.291 0-10.747-5.652-17.291-15.246-17.291zM985.654 288.878h10.56c2.193 0 3.719 1.078 4.164 2.715l7.438 28.261c.481 1.822 1.041 3.942 1.301 6.21.483-2.343 1.115-4.388 1.674-6.21l8.775-28.261c.446-1.376 2.008-2.715 4.092-2.715h3.717c2.195 0 3.607 1.041 4.166 2.715l8.701 28.261c.559 1.748 1.188 3.682 1.637 5.913.408-2.194.818-4.165 1.264-5.913l7.438-28.261c.408-1.45 2.008-2.715 4.09-2.715h9.894l-16.734 54.18h-11.379l-10.189-33.579c-.334-1.041-.742-2.305-1.078-3.681-.334 1.376-.744 2.64-1.078 3.681l-10.338 33.579h-11.379l-16.736-54.18zM1099.826 333.018h20.08v10.04h-32.65v-54.18h12.57v44.14zM1181.492 288.878v9.668h-22.236v12.644h17.031v9.297h-17.031v12.903h22.236v9.668h-34.881v-54.18h34.881zM1228.947 343.058H1207.9v-54.18h21.047c16.846 0 28.113 11.49 28.113 27.071.001 15.656-11.267 27.109-28.113 27.109zm0-44.512h-8.404v34.844h8.404c9.594 0 15.246-6.619 15.246-17.44 0-10.747-5.652-17.404-15.246-17.404zM1313.367 332.349v-8.219h-5.355c-1.598 0-2.526-.93-2.526-2.23v-6.917h19.262v22.869c-5.541 4.054-11.898 5.801-20.75 5.801-15.84 0-27.666-11.825-27.666-27.703 0-16.176 11.156-27.666 28.633-27.666 9.074 0 15.806 3.123 20.154 7.288l-3.644 5.541c-.707 1.041-1.674 1.673-2.825 1.673-.744 0-1.525-.26-2.308-.743-3.979-2.38-6.768-3.384-11.824-3.384-9.37 0-15.319 6.916-15.319 17.291 0 11.453 6.692 18.035 15.766 18.035 3.457 0 6.023-.632 8.402-1.636zM1385.068 288.878v9.668h-22.236v12.644h17.031v9.297h-17.031v12.903h22.236v9.668h-34.881v-54.18h34.881zM806.846 389.355v9.67h-22.239v13.724h18.521v9.706h-18.521v21.087h-12.646v-54.187h34.885zM889.184 416.432c0 3.916-.676 7.562-2.026 10.934-1.353 3.372-3.254 6.304-5.707 8.796-2.455 2.491-5.412 4.442-8.871 5.856-3.459 1.413-7.295 2.119-11.51 2.119s-8.06-.706-11.529-2.119c-3.471-1.414-6.44-3.365-8.906-5.856-2.469-2.492-4.377-5.424-5.728-8.796-1.353-3.371-2.025-7.018-2.025-10.934 0-3.918.674-7.562 2.025-10.936 1.352-3.371 3.26-6.297 5.728-8.775 2.468-2.479 5.437-4.427 8.906-5.84 3.471-1.413 7.314-2.119 11.529-2.119s8.051.713 11.51 2.139 6.416 3.379 8.871 5.856c2.453 2.479 4.355 5.405 5.707 8.776 1.35 3.373 2.026 7.005 2.026 10.899zm-12.868 0c0-2.679-.349-5.09-1.041-7.233-.695-2.146-1.693-3.962-2.994-5.448-1.304-1.488-2.896-2.628-4.779-3.422-1.885-.793-4.029-1.189-6.434-1.189-2.431 0-4.595.397-6.49 1.189-1.896.794-3.496 1.934-4.797 3.422-1.304 1.486-2.302 3.305-2.994 5.448-.695 2.145-1.041 4.556-1.041 7.233 0 2.701.346 5.125 1.041 7.271.692 2.145 1.69 3.961 2.994 5.448 1.301 1.486 2.899 2.622 4.797 3.402 1.896.78 4.061 1.171 6.49 1.171 2.403 0 4.549-.391 6.434-1.171s3.476-1.916 4.779-3.402c1.301-1.487 2.299-3.305 2.994-5.448.694-2.146 1.041-4.57 1.041-7.271zM940.059 433.612c1.686 0 3.193-.279 4.52-.837a9.16 9.16 0 0 0 3.365-2.398c.918-1.042 1.616-2.312 2.102-3.812.482-1.5.725-3.204.725-5.113v-32.097h12.57v32.097c0 3.322-.539 6.372-1.617 9.147-1.078 2.777-2.623 5.17-4.631 7.179s-4.451 3.569-7.326 4.687c-2.877 1.115-6.11 1.673-9.707 1.673-3.618 0-6.866-.558-9.743-1.673-2.875-1.116-5.316-2.678-7.326-4.687-2.008-2.009-3.545-4.4-4.611-7.179-1.067-2.775-1.6-5.825-1.6-9.147v-32.097h12.569v32.06c0 1.909.242 3.613.728 5.113.481 1.501 1.184 2.776 2.102 3.831a9.043 9.043 0 0 0 3.365 2.417c1.323.557 2.829.836 4.515.836zM1001.832 389.432c.373.049.707.143 1.004.277.299.137.582.329.856.577.272.248.582.582.93 1.004l25.736 32.541a65.002 65.002 0 0 1-.224-3.031 53.332 53.332 0 0 1-.076-2.771v-28.674h11.084v54.186h-6.545c-.969 0-1.785-.148-2.455-.446s-1.313-.843-1.934-1.637l-25.551-32.28c.074.942.137 1.865.186 2.77.051.906.076 1.755.076 2.548v29.046h-11.084v-54.186h6.621c.546-.001 1.005.025 1.376.076zM1121.547 416.432c0 3.916-.676 7.529-2.027 10.841-1.352 3.31-3.254 6.174-5.709 8.591-2.452 2.417-5.409 4.302-8.868 5.651-3.459 1.354-7.296 2.027-11.511 2.027h-21.051v-54.187h21.051c4.215 0 8.052.684 11.511 2.047s6.416 3.248 8.868 5.652c2.455 2.404 4.357 5.262 5.709 8.572 1.351 3.31 2.027 6.912 2.027 10.806zm-12.867 0c0-2.679-.348-5.097-1.043-7.252-.692-2.158-1.69-3.986-2.991-5.486-1.304-1.5-2.896-2.652-4.779-3.459-1.885-.805-4.029-1.209-6.435-1.209h-8.405v34.848h8.405c2.404 0 4.55-.402 6.435-1.208 1.883-.806 3.477-1.958 4.779-3.459 1.301-1.5 2.299-3.328 2.991-5.485.695-2.16 1.043-4.589 1.043-7.29zM1200.314 443.542h-9.744c-1.09 0-1.988-.254-2.695-.763a3.926 3.926 0 0 1-1.469-1.952l-3.199-9.446h-20.604l-3.197 9.446c-.248.694-.732 1.32-1.451 1.878s-1.6.837-2.641.837h-9.818l20.977-54.187h12.867l20.974 54.187zm-34.808-20.715h14.801l-4.983-14.839-1.134-3.328a83.162 83.162 0 0 1-1.282-4.146c-.396 1.512-.808 2.913-1.229 4.202s-.815 2.405-1.188 3.347l-4.985 14.764zM1266.363 389.355v9.968h-15.246v44.219h-12.57v-44.219h-15.248v-9.968h43.064zM1307.646 443.542H1295v-54.187h12.646v54.187zM1393.48 416.432c0 3.916-.677 7.562-2.027 10.934-1.353 3.372-3.254 6.304-5.709 8.796-2.455 2.491-5.41 4.442-8.869 5.856-3.459 1.413-7.297 2.119-11.512 2.119s-8.058-.706-11.527-2.119c-3.473-1.414-6.441-3.365-8.908-5.856-2.467-2.492-4.375-5.424-5.727-8.796-1.353-3.371-2.027-7.018-2.027-10.934 0-3.918.676-7.562 2.027-10.936 1.352-3.371 3.26-6.297 5.727-8.775 2.468-2.479 5.437-4.427 8.908-5.84 3.471-1.413 7.312-2.119 11.527-2.119s8.053.713 11.512 2.139 6.414 3.379 8.869 5.856c2.455 2.479 4.357 5.405 5.709 8.776 1.352 3.373 2.027 7.005 2.027 10.899zm-12.869 0c0-2.679-.349-5.09-1.041-7.233-.693-2.146-1.691-3.962-2.994-5.448-1.301-1.488-2.896-2.628-4.777-3.422-1.885-.793-4.029-1.189-6.436-1.189-2.431 0-4.593.397-6.488 1.189-1.896.794-3.496 1.934-4.799 3.422-1.301 1.486-2.299 3.305-2.992 5.448-.695 2.145-1.043 4.556-1.043 7.233 0 2.701.348 5.125 1.043 7.271.693 2.145 1.691 3.961 2.992 5.448 1.303 1.486 2.901 2.622 4.799 3.402 1.896.78 4.059 1.171 6.488 1.171 2.405 0 4.551-.391 6.436-1.171 1.883-.78 3.478-1.916 4.777-3.402 1.303-1.487 2.301-3.305 2.994-5.448.694-2.146 1.041-4.57 1.041-7.271zM1429.814 389.432c.37.049.704.143 1.004.277.297.137.582.329.854.577.271.248.582.582.931 1.004l25.733 32.541a66.366 66.366 0 0 1-.223-3.031 52.158 52.158 0 0 1-.074-2.771v-28.674h11.082v54.186h-6.545c-.967 0-1.785-.148-2.455-.446-.668-.298-1.313-.843-1.934-1.637l-25.55-32.28c.074.942.136 1.865.187 2.77.049.906.074 1.755.074 2.548v29.046h-11.082v-54.186h6.619c.547-.001 1.006.025 1.379.076zM515.149 201.24l-16.832-12.576L602.42 49.321l16.832 12.575zM483.506 179.49l-18.81-9.37 37.361-74.998 18.81 9.37zM448.463 163.752l-20.184-5.863 36.74-126.503 20.185 5.862zM411.174 154.535l-20.905-2.163 8.611-83.315 20.912 2.165zM351.876 153.726l-7.171-93.58 20.953-1.602 7.172 93.578zM314.347 161.911l-16.269-62.14 20.329-5.323 16.258 62.141zM278.872 176.669l-18.166-39.038 19.042-8.861 18.167 39.037zM246.613 197.528l-9.738-13.794 17.165-12.122 9.731 13.795zM218.593 223.811l-49.28-48.381 14.718-14.999 49.282 48.379zM195.712 254.668l-76.251-52.288 11.809-17.378 76.251 52.288zM178.712 289.113l-48.018-21.282 8.516-19.208 48.021 21.284zM25.915 291.59l142.23 34.459 4.944-20.422-142.224-34.455zM164.346 364.27l-106.108-6.175 1.22-20.983 106.109 6.176zM64.554 415.088l-2.54-20.856 102.854-12.526 2.54 20.855zM154.27 446.84l-6.227-20.068 23.009-7.14 6.227 20.067zM116.27 514.718l-9.708-18.637 77.31-40.272 9.708 18.638zM141.617 563.36l-12.88-16.6 74.252-57.609 12.879 16.6zM182.234 600.756l-15.637-14.03 61.173-68.18 15.637 14.03zM253.064 590.05l-17.898-11.017 22.168-36.012 17.897 11.016zM280.483 646.164l-19.572-7.645 29.944-76.688 19.572 7.646zM333.324 652.544l-20.623-4.026 14.476-74.155 20.623 4.026zM385.456 633.026l-21.011-.281.698-52.543 21.01.275zM420.361 679.377l-16.814-100.212 20.726-3.48 16.811 100.211zM461.99 629.063l-20.804-57.75 19.764-7.12 20.803 57.75zM476.742 556.832l76.211 129.983 18.184-10.542-76.216-129.976zM521.201 548.626l-11.614-11.921 15.184-14.529 11.619 11.919zM589.805 553.131l-52.39-42.928 13.322-16.254 52.391 42.926zM614.066 509.247l-53.506-29.716 10.196-18.37 53.513 29.712zM603.69 453.999l-25.849-8.78 6.758-19.899 25.841 8.778zM669.694 420.456l-80.983-12.068 3.097-20.783 80.983 12.069zM592.856 370.18l-.668-21.003 51.964-1.642.67 21.008zM590.065 331.852l-4.405-20.547 64.257-13.774 4.404 20.547zM580.549 294.647l-8.003-19.426L614 258.147l7.997 19.422zM564.502 259.746l-11.339-17.693 109.724-70.364 11.345 17.692zM542.484 228.262l-14.318-15.372 16.577-15.441 14.311 15.375zM362.427 350.361c-1.681-1.936-3.736-3.424-6.168-4.465-2.433-1.039-5.201-1.56-8.305-1.56h-10.848v44.977h10.848c3.103 0 5.872-.521 8.305-1.561 2.432-1.039 4.487-2.527 6.168-4.464s2.968-4.296 3.863-7.08 1.345-5.92 1.345-9.408c0-3.456-.449-6.576-1.345-9.359-.895-2.784-2.184-5.143-3.863-7.08z"/><path d="m510.696 370.529-.472-15.396-46.673 1.427 45.668-9.732-3.211-15.065-45.69 9.737 43.215-17.734-5.849-14.25-43.175 17.718 39.321-25.136-8.297-12.979-39.358 25.159 34.235-31.78-10.479-11.289-34.23 31.776 28.008-37.371-12.326-9.236-28.007 37.371 20.887-41.768-13.774-6.889-20.89 41.772 13.101-44.829-14.785-4.32-13.1 44.831 4.891-46.444-15.318-1.613-5.062 48.084-3.774-48.202-15.354 1.203 3.644 46.543-11.888-45.143-14.896 3.922 11.895 45.167-19.763-42.318-13.955 6.518 19.759 42.309L308 254.467l-12.568 8.902 27.005 38.123-33.374-32.689-10.777 11.004 33.353 32.669-38.648-26.196-8.643 12.75 38.665 26.206-42.721-18.884-6.227 14.088 42.719 18.883-45.405-10.954-3.611 14.973 45.392 10.951-46.613-2.676-.883 15.377 46.635 2.677-46.363 5.688 1.875 15.287 46.373-5.689-44.612 13.874 4.574 14.707 44.587-13.866-41.396 21.602 7.125 13.655 41.397-21.602-36.878 28.642 9.447 12.164 36.881-28.645-31.178 34.767 11.467 10.283 31.17-34.76-24.47 39.766 13.117 8.072 24.482-39.785-16.987 43.512 14.348 5.603 16.987-43.514-8.95 45.846 15.117 2.95 8.946-45.825-.622 46.688 15.399.205.623-46.72 7.725 46.082 15.19-2.547-7.718-46.046 15.809 43.927 14.492-5.217-15.814-43.942 23.402 40.415 13.33-7.719-23.396-40.403 30.23 35.583 11.738-9.973-30.24-35.595 36.102 29.62 9.77-11.907-36.125-29.641 40.836 22.72 7.488-13.459-40.798-22.698 44.191 15.053 4.968-14.58-44.216-15.061 46.195 6.928 2.285-15.232-46.21-6.931 46.704-1.424zm-129.07 10.264c-1.744 4.271-4.199 7.968-7.367 11.088s-6.983 5.553-11.448 7.296c-4.464 1.745-9.416 2.616-14.855 2.616h-27.168v-69.936h27.168c5.439 0 10.393.88 14.855 2.64 4.465 1.76 8.28 4.192 11.448 7.296s5.623 6.792 7.367 11.064 2.616 8.92 2.616 13.943c0 5.057-.872 9.721-2.616 13.993zm55.416-36.456h-28.704v16.32h21.984v12h-21.984v16.655h28.704v12.479h-45.024v-69.936h45.024v12.482zM816.795 505.15c0 3.972-.629 7.585-1.887 10.842-1.258 3.256-3.035 6.043-5.328 8.361-2.295 2.318-5.045 4.113-8.252 5.384-3.206 1.271-6.758 1.905-10.655 1.905h-19.832v-53.021h19.832c3.897 0 7.449.636 10.655 1.906 3.207 1.271 5.957 3.07 8.252 5.402 2.293 2.33 4.07 5.124 5.328 8.38s1.887 6.871 1.887 10.841zm-7.363 0c0-3.256-.443-6.166-1.332-8.732-.889-2.564-2.146-4.735-3.773-6.512-1.629-1.775-3.602-3.132-5.92-4.07-2.319-.937-4.896-1.405-7.733-1.405h-12.617v41.403h12.617c2.837 0 5.414-.469 7.733-1.406 2.318-.938 4.291-2.287 5.92-4.052 1.627-1.763 2.885-3.928 3.773-6.493s1.332-5.477 1.332-8.733zM881.137 478.621v5.847H855.68v17.612h20.609v5.623H855.68v18.094h25.457v5.846h-32.672v-53.021h32.672zM933.973 525.944c2.195 0 4.156-.37 5.883-1.11 1.727-.739 3.188-1.775 4.385-3.107 1.195-1.332 2.109-2.923 2.738-4.773.629-1.85.943-3.885.943-6.104v-32.228h7.141v32.228c0 3.059-.488 5.896-1.461 8.51-.975 2.615-2.369 4.878-4.182 6.79s-4.027 3.41-6.641 4.495c-2.615 1.085-5.551 1.628-8.807 1.628s-6.191-.543-8.807-1.628-4.834-2.583-6.66-4.495c-1.824-1.912-3.225-4.175-4.199-6.79-.975-2.614-1.461-5.451-1.461-8.51v-32.228h7.141v32.19c0 2.22.314 4.255.943 6.104.629 1.851 1.541 3.441 2.738 4.773 1.195 1.332 2.664 2.375 4.402 3.127 1.742.752 3.708 1.128 5.904 1.128zM1025.398 478.621v6.031h-17.131v46.99h-7.178v-46.99h-17.205v-6.031h41.514zM1082.01 486.91c-.223.369-.457.646-.703.832-.248.186-.568.277-.963.277-.42 0-.906-.209-1.461-.629a23.43 23.43 0 0 0-2.109-1.388c-.852-.505-1.875-.968-3.07-1.388-1.197-.419-2.646-.629-4.348-.629-1.604 0-3.023.217-4.256.648-1.234.432-2.264 1.017-3.09 1.757a7.189 7.189 0 0 0-1.867 2.608c-.42.999-.629 2.078-.629 3.238 0 1.479.363 2.707 1.09 3.681.729.975 1.689 1.808 2.887 2.497 1.195.691 2.553 1.289 4.07 1.795s3.07 1.03 4.662 1.572a54.926 54.926 0 0 1 4.662 1.832 16.446 16.446 0 0 1 4.07 2.571c1.195 1.036 2.158 2.307 2.885 3.812.729 1.504 1.092 3.354 1.092 5.549 0 2.319-.395 4.496-1.184 6.531s-1.943 3.805-3.459 5.31c-1.518 1.505-3.381 2.688-5.588 3.552s-4.717 1.295-7.529 1.295c-3.43 0-6.555-.623-9.379-1.868-2.826-1.245-5.236-2.929-7.234-5.051l2.072-3.403c.197-.271.438-.5.721-.686.283-.185.598-.277.943-.277.52 0 1.111.277 1.777.833.666.555 1.498 1.165 2.498 1.831.998.666 2.207 1.277 3.625 1.832s3.15.832 5.199.832c1.701 0 3.219-.234 4.551-.703 1.332-.468 2.461-1.128 3.385-1.979a8.556 8.556 0 0 0 2.127-3.053c.494-1.185.74-2.504.74-3.959 0-1.604-.363-2.917-1.092-3.941-.727-1.023-1.684-1.881-2.867-2.57-1.184-.691-2.533-1.277-4.051-1.758l-4.662-1.48c-1.592-.505-3.145-1.092-4.662-1.758s-2.867-1.529-4.051-2.59c-1.186-1.061-2.141-2.387-2.867-3.977-.729-1.592-1.092-3.559-1.092-5.902 0-1.874.363-3.688 1.092-5.439a14.026 14.026 0 0 1 3.162-4.662c1.381-1.355 3.09-2.441 5.125-3.256 2.035-.813 4.371-1.221 7.012-1.221 2.959 0 5.66.469 8.104 1.406 2.441.938 4.574 2.294 6.4 4.07l-1.738 3.406zM1153.344 520.69c.395 0 .752.161 1.074.481l2.811 3.07c-2.17 2.517-4.803 4.478-7.898 5.883-3.096 1.406-6.826 2.109-11.193 2.109-3.822 0-7.289-.66-10.396-1.979s-5.76-3.169-7.955-5.55-3.898-5.235-5.105-8.565c-1.209-3.33-1.812-6.993-1.812-10.989s.646-7.658 1.941-10.988 3.113-6.191 5.457-8.584 5.15-4.249 8.418-5.568c3.268-1.32 6.875-1.98 10.822-1.98 3.898 0 7.258.605 10.084 1.813a25.517 25.517 0 0 1 7.529 4.921l-2.332 3.293c-.172.246-.369.45-.592.61-.223.161-.543.241-.963.241-.32 0-.66-.117-1.016-.352a44.71 44.71 0 0 1-1.277-.87 28.004 28.004 0 0 0-1.738-1.11c-.666-.395-1.457-.764-2.369-1.109s-1.973-.635-3.182-.869-2.604-.352-4.182-.352c-2.836 0-5.432.486-7.787 1.461-2.357.975-4.385 2.362-6.088 4.162-1.701 1.801-3.027 3.996-3.977 6.586s-1.426 5.489-1.426 8.695c0 3.306.477 6.254 1.426 8.844s2.244 4.779 3.885 6.566a16.365 16.365 0 0 0 5.828 4.089c2.244.938 4.662 1.406 7.252 1.406 1.578 0 2.996-.093 4.254-.277s2.424-.476 3.496-.87a14.838 14.838 0 0 0 2.998-1.498 23.598 23.598 0 0 0 2.793-2.164c.419-.371.825-.556 1.22-.556zM1231.562 531.643h-7.215v-24.124h-28.564v24.124h-7.215v-53.021h7.215v23.644h28.564v-23.644h7.215v53.021zM1273.594 525.611h22.941v6.031h-30.119v-53.021h7.178v46.99zM1369.979 531.643h-5.549c-.643 0-1.16-.16-1.555-.48s-.691-.729-.889-1.222l-4.957-12.802h-23.791l-4.959 12.802c-.172.444-.469.839-.887 1.185-.42.346-.939.518-1.555.518h-5.551l21.201-53.021h7.289l21.203 53.02zm-34.743-19.684h19.795l-8.326-21.571c-.543-1.332-1.072-2.997-1.59-4.995a83.556 83.556 0 0 1-.797 2.793 32.959 32.959 0 0 1-.758 2.239l-8.324 21.534zM1403.703 478.862c.309.161.66.487 1.055.98l30.711 39.96a24.413 24.413 0 0 1-.148-1.869 42.47 42.47 0 0 1-.037-1.757V478.62h6.289v53.021h-3.625c-.568 0-1.043-.098-1.426-.296-.381-.197-.758-.53-1.127-.999l-30.674-39.923c.049.616.086 1.221.111 1.813.023.592.037 1.135.037 1.627v37.777h-6.291v-53.021h3.701c.641.002 1.116.083 1.424.243zM1522.381 505.15c0 3.972-.629 7.585-1.887 10.842-1.258 3.256-3.033 6.043-5.328 8.361s-5.045 4.113-8.252 5.384c-3.205 1.271-6.758 1.905-10.654 1.905h-19.832v-53.021h19.832c3.896 0 7.449.636 10.654 1.906 3.207 1.271 5.957 3.07 8.252 5.402 2.295 2.33 4.07 5.124 5.328 8.38s1.887 6.871 1.887 10.841zm-7.363 0c0-3.256-.443-6.166-1.332-8.732-.887-2.564-2.146-4.735-3.773-6.512-1.629-1.775-3.602-3.132-5.92-4.07-2.318-.937-4.896-1.405-7.732-1.405h-12.617v41.403h12.617c2.836 0 5.414-.469 7.732-1.406s4.291-2.287 5.92-4.052c1.627-1.763 2.887-3.928 3.773-6.493.888-2.566 1.332-5.477 1.332-8.733z"/></svg>