<svg xmlns="http://www.w3.org/2000/svg" xmlns:xlink="http://www.w3.org/1999/xlink" xml:space="preserve" style="enable-background:new 0 0 425.2 122.23" viewBox="0 0 425.2 122.23"><switch><g><path d="M0 0h425.2v122.23H0z" style="fill:#fff"/><path d="M41.07 63.86H81.1v10.53H41.07V63.86zm0-16.01h40.04v10.53H41.07V47.85z" style="fill:#cc051c"/><path d="M81.11 100.2H22.03V22.02h78.18v21.83h-3.79V25.82h-70.6v70.59h55.29z" style="fill:#005da8"/><defs><path id="a" d="M0 0h425.2v122.23H0z"/></defs><clipPath id="b"><use xlink:href="#a" style="overflow:visible"/></clipPath><path d="M387.79 74.31h15.38v-3.38h-11.59V62.7h10.85v-3.4h-10.85v-8.08h11.23v-3.38h-15.02v26.47zM378.4 59.3h-14.89V47.85h-3.79v26.49h3.79V62.81h14.89v11.53h3.79V47.85h-3.79V59.3zm-32.48 11.86c-3.07 0-5.59-.94-7.57-2.81-1.97-1.87-2.96-4.26-2.96-7.17 0-2.88 1-5.28 3.01-7.2 2-1.92 4.52-2.87 7.56-2.87 2.96 0 5.99.89 9.08 2.66v-4.08c-3.4-1.45-6.49-2.18-9.27-2.18-4.03 0-7.42 1.32-10.17 3.94-2.75 2.63-4.12 5.87-4.12 9.73 0 2.43.6 4.68 1.8 6.77 1.2 2.09 2.83 3.72 4.89 4.91 2.06 1.19 4.57 1.78 7.53 1.78 3.64 0 6.85-.76 9.63-2.28V68.2c-3.06 1.97-6.2 2.96-9.41 2.96m-20.36-3.33c0 1-.4 1.82-1.19 2.49-.79.66-1.78.99-2.97.99-2.69 0-5.06-1.3-7.11-3.89v4.82c2.15 1.61 4.53 2.41 7.15 2.41 2.27 0 4.12-.66 5.55-1.99 1.42-1.33 2.13-3.05 2.13-5.18 0-2.98-1.62-5.44-4.85-7.37l-2.9-1.71c-1.3-.76-2.24-1.49-2.83-2.18-.59-.69-.88-1.44-.88-2.23 0-.89.4-1.63 1.19-2.2.8-.57 1.81-.86 3.05-.86 2.2 0 4.25.92 6.16 2.75v-4.31c-1.85-1.24-3.88-1.86-6.09-1.86-2.31 0-4.19.65-5.64 1.95-1.45 1.3-2.17 3-2.17 5.08 0 1.39.38 2.62 1.15 3.69.76 1.07 2.05 2.15 3.86 3.26l2.88 1.75c2.35 1.45 3.51 2.98 3.51 4.59m-19.74 6.51h3.79V47.85h-3.79v26.49zm-24.24-23.15h8.39v23.16h3.81V51.19h8.54v-3.38h-20.74v3.38zm-7.78-8.68c-.35.35-.52.78-.52 1.28 0 .49.18.92.53 1.28.35.36.78.54 1.29.54.49 0 .91-.17 1.25-.52.34-.35.51-.78.51-1.28 0-.51-.18-.94-.54-1.29-.36-.35-.79-.53-1.28-.53-.48 0-.89.17-1.24.52m-7.3 0c-.35.35-.52.78-.52 1.28 0 .49.18.92.53 1.28.35.36.78.54 1.29.54.49 0 .91-.17 1.25-.52.34-.35.51-.78.51-1.28 0-.51-.18-.94-.54-1.29-.36-.35-.79-.53-1.28-.53-.48 0-.89.17-1.24.52m.68 20.61 3.96-9.6 4.27 9.6h-8.23zm-8.71 11.22h3.9l3.31-7.85h11.3l3.53 7.85h3.88L272.51 47.7h-2.67l-11.37 26.64zm-17.84-23.15h8.39v23.16h3.81V51.19h8.54v-3.38h-20.74v3.38zm-7.29 23.15h3.79V47.85h-3.79v26.49zm-14.02-22.85c.8.28 1.43.76 1.87 1.43.44.68.66 1.43.66 2.27 0 .85-.2 1.6-.6 2.27-.4.66-.95 1.16-1.67 1.49-.71.33-2.03.49-3.95.49h-1.44v-8.36h1.14c1.85-.01 3.18.13 3.99.41m-5.13 22.85V62.81h.99c1.24 0 2.12.14 2.65.43.52.28 1.11.75 1.76 1.39.65.64 1.37 1.51 2.15 2.6l1.27 2.07 1.17 1.93.74 1.04c.11.15.19.26.23.32l1.16 1.75h4.51l-1.4-1.9c-.56-.76-1.3-1.89-2.22-3.39-1.47-2.39-2.61-4.07-3.41-5.03-.81-.96-1.64-1.72-2.49-2.28 1.44-.56 2.55-1.4 3.32-2.52s1.16-2.46 1.16-4c0-2.26-.79-4.06-2.36-5.39-1.57-1.33-3.7-1.99-6.38-1.99h-6.64v26.49h3.79zm-23.54-11.22 3.96-9.6 4.27 9.6h-8.23zm-8.72 11.22h3.9l3.31-7.85h11.3l3.53 7.85h3.88L195.98 47.7h-2.67l-11.38 26.64zm-1.71-19.08c0 1.35-.42 2.39-1.25 3.12-.84.73-2.02 1.09-3.57 1.09h-4.15v-8.29h3.93c3.36.01 5.04 1.37 5.04 4.08m-8.97 19.08V62.85h2.81c2.5 0 4.43-.27 5.77-.81 1.34-.54 2.4-1.4 3.17-2.59s1.16-2.55 1.16-4.1c0-2.3-.75-4.13-2.26-5.5-1.51-1.36-3.52-2.05-6.05-2.05h-8.4v26.53h3.8zm-24.16-22.85c.8.28 1.42.76 1.87 1.43.44.68.66 1.43.66 2.27 0 .85-.2 1.6-.6 2.27-.4.66-.96 1.16-1.67 1.49-.71.33-2.03.49-3.95.49h-1.44v-8.36h1.14c1.86-.01 3.19.13 3.99.41m-5.13 22.85V62.81h.99c1.24 0 2.12.14 2.65.43.52.28 1.11.75 1.76 1.39.65.64 1.37 1.51 2.15 2.6l1.27 2.07 1.18 1.93.74 1.04c.11.15.19.26.23.32l1.15 1.75h4.51l-1.4-1.9c-.56-.76-1.3-1.89-2.22-3.39-1.47-2.39-2.6-4.07-3.41-5.03s-1.64-1.72-2.48-2.28c1.44-.56 2.55-1.4 3.32-2.52s1.16-2.46 1.16-4c0-2.26-.79-4.06-2.36-5.39-1.57-1.33-3.7-1.99-6.38-1.99h-6.64v26.49h3.78zm-22.3-.03h15.38v-3.38h-11.59V62.7h10.85v-3.4h-10.85v-8.08h11.23v-3.38h-15.02v26.47zm-15.17-22.88c.82.14 1.69.42 2.61.85s1.73.98 2.44 1.65c1.92 1.79 2.88 4.11 2.88 6.96 0 2.9-.94 5.29-2.81 7.19a8.88 8.88 0 0 1-1.93 1.47c-.7.4-1.58.73-2.63.99-1.05.26-2.52.39-4.42.39h-4.16v-19.7h4.04c1.83 0 3.15.06 3.98.2m-4.12 22.88c2.35 0 3.94-.07 4.78-.2s1.75-.4 2.75-.79c1.71-.64 3.2-1.6 4.49-2.86a12.984 12.984 0 0 0 3.94-9.35c0-2.48-.62-4.77-1.86-6.86-1.24-2.1-2.91-3.69-5.01-4.77-2.1-1.08-4.95-1.62-8.55-1.62h-8.24v26.46h7.7z" style="clip-path:url(#b);fill:#005da8"/><path d="M239.15 97.77c-.58-.73-.87-1.76-.87-3.08 0-1.34.29-2.37.87-3.09.58-.73 1.35-1.09 2.31-1.09s1.73.36 2.31 1.09c.58.73.87 1.76.87 3.09 0 1.32-.29 2.35-.87 3.08-.58.74-1.35 1.1-2.31 1.1s-1.73-.36-2.31-1.1m4.04 2.2c.6-.35 1.06-.83 1.39-1.43l.5 1.69h1.78c-.19-.97-.31-1.83-.34-2.55-.03-.73-.04-1.28-.04-1.65V85.19h-1.89v5.62c-.33-.58-.79-1.05-1.39-1.41-.6-.35-1.34-.53-2.23-.53-.84 0-1.63.23-2.36.69-.74.46-1.32 1.12-1.77 1.98-.44.86-.66 1.91-.66 3.14 0 1.23.22 2.28.66 3.14.44.86 1.03 1.52 1.77 1.98s1.52.69 2.36.69c.88 0 1.62-.17 2.22-.52m-16.71.25v-6.05c0-1.2.26-2.11.79-2.73.53-.62 1.25-.93 2.16-.93.72 0 1.26.15 1.61.45.35.3.58.69.69 1.18.1.49.16 1.02.16 1.59v6.5h1.89v-7.06c0-1.28-.28-2.31-.83-3.09-.55-.79-1.51-1.18-2.86-1.18-.94 0-1.7.18-2.27.54-.57.36-1.01.8-1.33 1.33l-.5-1.69h-1.39v11.16h1.88zm-11.71-1.72c-.38-.32-.57-.75-.57-1.27 0-.51.23-.92.69-1.23.46-.31 1.11-.55 1.95-.72.84-.17 1.83-.32 2.97-.44v.7c0 .87-.16 1.56-.49 2.06-.33.5-.76.86-1.28 1.07-.53.21-1.08.32-1.67.32-.69 0-1.21-.16-1.6-.49m3.57 1.51c.61-.32 1.09-.76 1.42-1.32l.45 1.53h1.73c-.1-.53-.19-1.12-.27-1.8-.07-.68-.11-1.48-.11-2.41V93.4c0-1.56-.36-2.7-1.07-3.43-.71-.73-1.84-1.09-3.39-1.09-1.01 0-1.89.24-2.67.71-.77.47-1.31 1.14-1.61 1.99l1.82.54c.12-.54.39-.96.82-1.27.43-.31.98-.46 1.65-.46.9 0 1.55.25 1.96.76s.59 1.24.56 2.18c-1.51.17-2.84.39-3.97.66-1.13.28-2.01.67-2.63 1.18-.62.51-.93 1.21-.93 2.09 0 .68.17 1.25.52 1.73s.81.85 1.4 1.1 1.23.38 1.93.38c.98.02 1.77-.14 2.39-.46m-15.61-2.24c-.58-.73-.87-1.76-.87-3.08 0-1.34.29-2.37.87-3.09.58-.73 1.35-1.09 2.31-1.09s1.73.36 2.31 1.09c.58.73.87 1.76.87 3.09 0 1.32-.29 2.35-.87 3.08-.58.74-1.35 1.1-2.31 1.1s-1.73-.36-2.31-1.1m5.18 2.04c.73-.46 1.31-1.12 1.75-1.98.44-.86.66-1.91.66-3.14 0-1.23-.22-2.28-.66-3.14-.44-.86-1.03-1.52-1.75-1.98-.73-.46-1.52-.69-2.37-.69-.87 0-1.6.18-2.21.53-.6.35-1.07.82-1.42 1.41V85.2h-1.89v15.03h1.39l.5-1.69c.35.6.82 1.08 1.42 1.43.6.35 1.34.53 2.21.53a4.54 4.54 0 0 0 2.37-.69m-13.81.41v-4.79c0-1.38.25-2.46.75-3.24.5-.78 1.39-1.22 2.67-1.33.1-.01.21-.02.33-.02h.33v-1.96c-.93 0-1.73.21-2.4.62-.67.41-1.2.96-1.59 1.63l-.61-2.07h-1.37v11.16h1.89zm-12.13-8.39c.32-.47.73-.8 1.23-1.01.5-.21 1.02-.32 1.58-.32.66 0 1.23.15 1.7.46.47.31.84.7 1.1 1.18.26.48.39.98.39 1.51h-6.57c.06-.75.25-1.35.57-1.82m5.55 8.03c.75-.42 1.33-.95 1.73-1.6l-1.82-.54c-.26.33-.6.6-1.02.8-.43.2-.96.3-1.59.3-.45 0-.94-.11-1.46-.33-.53-.22-.98-.6-1.36-1.14-.38-.54-.59-1.27-.62-2.21h8.6c.06-.79-.01-1.57-.21-2.32-.2-.75-.53-1.42-.97-2.01-.44-.59-1-1.06-1.68-1.42-.68-.35-1.46-.53-2.34-.53-1.02 0-1.94.24-2.76.71-.82.47-1.47 1.14-1.95 2-.48.86-.72 1.89-.72 3.07 0 1.1.21 2.08.64 2.96.43.88 1.05 1.57 1.86 2.09.81.52 1.8.78 2.97.78 1.05.02 1.95-.19 2.7-.61m-12.91.36 3.98-11.16h-2.05l-2.9 8.68-2.93-8.68h-2.05l3.98 11.16h1.97zm-7.4 0v-1.67h-1.01c-.54 0-.87-.1-.98-.29-.11-.19-.17-.58-.17-1.15v-6.55h2.16v-1.51h-2.16v-2.81h-1.89v2.81h-1.89v1.51h1.89v6.86c0 .76.07 1.35.21 1.76.14.4.4.68.79.82.38.14.93.21 1.63.21h1.42zm-21.69 0v-6.05c0-1.2.25-2.11.74-2.73.49-.62 1.15-.93 1.96-.93.69 0 1.2.15 1.54.45.34.3.56.69.68 1.18.11.49.17 1.02.17 1.59v6.5h1.89v-6.05c0-1.2.24-2.11.73-2.73.49-.62 1.14-.93 1.95-.93.69 0 1.2.15 1.54.45.34.3.56.69.68 1.18.11.49.17 1.02.17 1.59v6.5h1.89v-7.06c0-1.28-.28-2.31-.83-3.09-.56-.79-1.48-1.18-2.77-1.18-.78 0-1.49.15-2.13.46-.64.31-1.18.81-1.63 1.5-.24-.62-.62-1.1-1.15-1.44-.52-.35-1.21-.52-2.07-.52-.83 0-1.51.18-2.06.54-.55.36-.98.8-1.29 1.33l-.49-1.69h-1.4v11.16h1.88zm-11.7-1.72c-.38-.32-.57-.75-.57-1.27 0-.51.23-.92.69-1.23.46-.31 1.11-.55 1.95-.72.84-.17 1.83-.32 2.97-.44v.7c0 .87-.17 1.56-.5 2.06-.33.5-.76.86-1.28 1.07-.52.21-1.08.32-1.66.32-.69 0-1.22-.16-1.6-.49m3.56 1.51c.62-.32 1.09-.76 1.42-1.32l.45 1.53h1.73c-.11-.53-.2-1.12-.27-1.8-.07-.68-.11-1.48-.11-2.41V93.4c0-1.56-.36-2.7-1.07-3.43-.71-.73-1.84-1.09-3.39-1.09-1 0-1.89.24-2.67.71-.77.47-1.31 1.14-1.61 1.99l1.82.54c.12-.54.39-.96.82-1.27.43-.31.98-.46 1.65-.46.9 0 1.55.25 1.96.76s.59 1.24.56 2.18c-1.51.17-2.84.39-3.97.66-1.13.28-2.01.67-2.63 1.18-.62.51-.93 1.21-.93 2.09 0 .68.17 1.25.52 1.73s.81.85 1.39 1.1a4.9 4.9 0 0 0 1.94.38c.98.02 1.78-.14 2.39-.46m-10.34.09c.69-.26 1.25-.64 1.69-1.14.43-.49.65-1.1.65-1.8 0-.8-.17-1.41-.52-1.86-.35-.44-.79-.78-1.33-1-.54-.22-1.11-.4-1.71-.52l-1.46-.29c-.58-.12-1.08-.29-1.47-.51-.4-.22-.6-.57-.6-1.05s.23-.85.7-1.1c.46-.26.98-.38 1.55-.38.52 0 1.03.11 1.52.33.49.22.83.55 1.02 1l1.78-.65c-.33-.78-.89-1.35-1.68-1.72a5.82 5.82 0 0 0-2.51-.55c-.72 0-1.41.12-2.06.36-.65.24-1.19.59-1.61 1.05-.42.46-.63 1.02-.63 1.7 0 .67.14 1.21.43 1.62.28.4.66.72 1.12.93.46.22.97.39 1.51.51l1.55.32c.68.13 1.26.33 1.74.58.49.25.73.69.73 1.31 0 .33-.13.62-.38.88-.26.25-.58.45-.98.58-.4.14-.82.2-1.27.2-.62 0-1.2-.15-1.77-.44-.56-.29-.93-.77-1.09-1.43l-1.82.68c.25.63.63 1.15 1.11 1.56.49.41 1.04.72 1.67.92.62.2 1.26.3 1.9.3.79 0 1.53-.13 2.22-.39m-16.37-8.27c.32-.47.73-.8 1.23-1.01a3.97 3.97 0 0 1 1.57-.32c.66 0 1.23.15 1.7.46.47.31.84.7 1.1 1.18.26.48.39.98.39 1.51h-6.57c.07-.75.26-1.35.58-1.82m5.55 8.03c.75-.42 1.33-.95 1.73-1.6l-1.82-.54c-.25.33-.6.6-1.02.8-.43.2-.96.3-1.59.3-.45 0-.94-.11-1.46-.33-.53-.22-.98-.6-1.36-1.14-.38-.54-.59-1.27-.62-2.21h8.6c.06-.79-.01-1.57-.21-2.32-.2-.75-.53-1.42-.97-2.01-.44-.59-1-1.06-1.68-1.42-.67-.35-1.45-.53-2.34-.53-1.02 0-1.94.24-2.76.71-.82.47-1.47 1.14-1.95 2-.48.86-.72 1.89-.72 3.07 0 1.1.21 2.08.64 2.96.43.88 1.05 1.57 1.86 2.09.81.52 1.8.78 2.97.78 1.05.02 1.95-.19 2.7-.61m-14.5.13c.83-.34 1.49-.89 1.97-1.65l.56 1.89h1.21v-7.76h-6.39v1.82h4.39v.49c0 .78-.14 1.43-.4 1.93-.27.51-.62.91-1.06 1.2-.44.29-.92.5-1.44.62-.53.12-1.03.18-1.53.18-.93 0-1.75-.24-2.46-.72s-1.27-1.17-1.67-2.07c-.4-.9-.6-1.98-.6-3.24 0-1.31.21-2.4.63-3.3.42-.89.99-1.56 1.7-2.01.71-.45 1.51-.67 2.4-.67.97 0 1.8.21 2.46.64.67.43 1.17.98 1.5 1.65l1.87-.68c-.53-1.1-1.29-1.93-2.31-2.52-1.01-.58-2.15-.88-3.41-.88-1.41 0-2.64.32-3.69.97-1.05.64-1.86 1.55-2.44 2.71-.58 1.16-.87 2.52-.87 4.08 0 1.53.27 2.88.8 4.05s1.31 2.09 2.32 2.76c1.01.67 2.24 1 3.68 1 1.02.01 1.95-.15 2.78-.49" style="clip-path:url(#b);fill:#cc051c"/></g></switch></svg>