<svg xmlns="http://www.w3.org/2000/svg" xml:space="preserve" id="svg" x="0" y="0" style="enable-background:new 0 0 1724 354" version="1.1" viewBox="0 0 1724 354"><style>.st0{fill:#cc051c}</style><path d="M87.6 116.1h180.8v47.5H87.6v-47.5zm0 72.3h180.8v47.5H87.6v-47.5z" class="st0"/><path d="M1571.7 122.3V85.1h49V69.8h-49V33.3h50.7V18.1h-67.8v119.5h69.5v-15.2h-52.4v-.1zm-59.6 15.4h17.1V18.1h-17.1v51.7h-67.2V18.1h-17.1v119.6h17.1V85.6h67.2v52.1zm-147.7 1.4c16.4 0 30.9-3.4 43.5-10.3V110c-13.8 8.9-28 13.4-42.5 13.4-13.9 0-25.3-4.2-34.2-12.7-8.9-8.4-13.4-19.2-13.4-32.4 0-13 4.5-23.9 13.6-32.5s20.4-13 34.1-13c13.4 0 27 4 41 12V26.4c-15.4-6.6-29.3-9.8-41.9-9.8-18.2 0-33.5 5.9-45.9 17.8s-18.6 26.5-18.6 43.9c0 11 2.7 21.2 8.1 30.6 5.4 9.4 12.8 16.8 22.1 22.2 9.4 5.3 20.8 8 34.1 8zm-122.5-83.2c-2.7-3.1-4-6.5-4-10.1 0-4 1.8-7.3 5.4-9.9 3.6-2.6 8.2-3.9 13.8-3.9 9.9 0 19.2 4.1 27.8 12.4V25c-8.3-5.6-17.5-8.4-27.5-8.4-10.5 0-18.9 2.9-25.5 8.8-6.5 5.9-9.8 13.5-9.8 23 0 6.3 1.7 11.8 5.2 16.7 3.5 4.8 9.3 9.7 17.4 14.7l13 7.9c10.5 6.5 15.8 13.4 15.8 20.7 0 4.5-1.8 8.2-5.3 11.2-3.6 3-8 4.5-13.4 4.5-12.2 0-22.9-5.9-32.1-17.6v21.8c9.7 7.3 20.5 10.9 32.3 10.9 10.3 0 18.6-3 25-9s9.6-13.8 9.6-23.4c0-13.5-7.3-24.6-21.9-33.3l-13.1-7.7c-5.8-3.5-10.1-6.8-12.7-9.9zm-57.6 81.8h17.1V18.1h-17.1v119.6zM1130 33.2h38.6V18h-93.7v15.2h37.9v104.6h17.2V33.2zm-78.7-27.6c1.5-1.6 2.3-3.5 2.3-5.8s-.8-4.2-2.4-5.8c-1.6-1.6-3.6-2.4-5.8-2.4-2.2 0-4.1.8-5.6 2.4-1.6 1.6-2.4 3.5-2.4 5.8 0 2.2.8 4.2 2.4 5.8 1.6 1.6 3.5 2.4 5.8 2.4 2.2 0 4.1-.8 5.7-2.4zm36.3 132.1-53.7-120.3h-12l-51.4 120.3h17.6l15-35.5h51l16 35.5h17.5zM1047.1 87h-37.2l17.9-43.3 19.3 43.3zm-28.8-81.4c1.5-1.6 2.3-3.5 2.3-5.8s-.8-4.2-2.5-5.8c-1.6-1.6-3.5-2.4-5.8-2.4-2.2 0-4 .8-5.6 2.4s-2.3 3.5-2.3 5.8c0 2.2.8 4.2 2.4 5.8 1.6 1.6 3.5 2.4 5.8 2.4 2.2 0 4.1-.8 5.7-2.4zM945 33.2h38.6V18h-93.7v15.2h37.9v104.6H945V33.2zm-88 104.5h17.1V18.1H857v119.6zm-31.8 0h20.4l-6.3-8.6c-2.5-3.4-5.9-8.5-10-15.3-6.6-10.8-11.8-18.4-15.4-22.7-3.7-4.3-7.4-7.8-11.2-10.3 6.5-2.5 11.5-6.3 15-11.4 3.5-5.1 5.2-11.1 5.2-18.1 0-10.2-3.5-18.3-10.7-24.3-7.1-6-16.7-9-28.8-9h-30v119.6h17.1V85.5h4.5c5.6 0 9.6.6 12 1.9 2.4 1.3 5 3.4 8 6.3 2.9 2.9 6.2 6.8 9.7 11.7l5.7 9.3 5.3 8.7 3.3 4.7c.5.7.8 1.2 1 1.5l5.2 8.1zm-22.8-76.2c-1.8 3-4.3 5.2-7.5 6.7s-9.2 2.2-17.9 2.2h-6.5V32.6h5.1c8.4 0 14.4.6 18 1.9 3.6 1.3 6.4 3.4 8.4 6.5s3 6.5 3 10.2c.1 3.9-.8 7.3-2.6 10.3zm-78 76.2h17.5L688.3 17.4h-12l-51.4 120.3h17.6l15-35.5h51l15.9 35.5zm-23-50.7h-37.2l17.9-43.3L701.4 87zm-71.8-16.5c3.5-5.4 5.2-11.5 5.2-18.5 0-10.4-3.4-18.7-10.2-24.8-6.8-6.2-15.9-9.2-27.3-9.2h-37.9v119.8h17.2V85.9h12.7c11.3 0 20-1.2 26-3.6 6.1-2.5 10.8-6.4 14.3-11.8zm-12.5-18.9c0 6.1-1.9 10.8-5.7 14.1s-9.1 4.9-16.1 4.9h-18.8V33.2h17.7c15.3 0 22.9 6.1 22.9 18.4zm-118 86.1h20.4l-6.3-8.6c-2.5-3.4-5.9-8.5-10-15.3-6.6-10.8-11.8-18.4-15.4-22.7-3.7-4.3-7.4-7.8-11.2-10.3 6.5-2.5 11.5-6.3 15-11.4 3.5-5.1 5.2-11.1 5.2-18.1 0-10.2-3.6-18.3-10.7-24.3s-16.7-9-28.8-9h-30v119.6h17.1V85.5h4.5c5.6 0 9.6.6 12 1.9 2.4 1.3 5 3.4 8 6.3 2.9 2.9 6.2 6.8 9.7 11.7l5.7 9.3 5.3 8.7 3.3 4.7c.5.7.9 1.2 1 1.5l5.2 8.1zm-22.9-76.2c-1.8 3-4.3 5.2-7.5 6.7s-9.2 2.2-17.9 2.2h-6.5V32.6h5.1c8.4 0 14.4.6 18 1.9 3.6 1.3 6.4 3.4 8.4 6.5s3 6.5 3 10.2c.1 3.9-.8 7.3-2.6 10.3zm-132.6 76.1h69.5v-15.2h-52.3V85.2h49V69.9h-49V33.4h50.7V18.2h-67.8v119.4h-.1zM324 100.9c3.1-7.3 4.6-15 4.6-23 0-11.2-2.8-21.5-8.4-31s-13.1-16.7-22.6-21.5c-9.5-4.9-22.4-7.3-38.6-7.3h-37.2v119.5h34.7c10.6 0 17.8-.3 21.6-.9 3.8-.6 7.9-1.8 12.4-3.6 7.7-2.9 14.5-7.2 20.3-12.9 5.7-5.6 10.1-12 13.2-19.3zM310.9 77c0 13.1-4.2 23.9-12.7 32.5-2.6 2.6-5.5 4.8-8.7 6.6s-7.1 3.3-11.9 4.5c-4.7 1.2-11.4 1.8-20 1.8h-18.8v-89h18.3c8.2 0 14.2.3 17.9.9 3.7.6 7.6 1.9 11.8 3.9 4.1 1.9 7.8 4.4 11 7.5 8.8 8 13.1 18.5 13.1 31.3zM239 .3h17V-98H-96v352h266v-17.1H-79V-80.9h318V.3z" style="fill:#005da8" transform="translate(98 98)"/><path d="M348.2 352.2c-6.4 0-11.9-1.5-16.4-4.5s-7.9-7.1-10.3-12.2c-2.4-5.2-3.5-11.2-3.5-18 0-6.9 1.3-13 3.9-18.1 2.6-5.2 6.2-9.2 10.9-12.1 4.7-2.9 10.1-4.3 16.4-4.3 5.6 0 10.6 1.3 15.1 3.9 4.5 2.6 7.9 6.3 10.2 11.2l-8.3 3c-1.5-3-3.7-5.5-6.7-7.4-3-1.9-6.6-2.9-10.9-2.9-3.9 0-7.5 1-10.6 3-3.2 2-5.7 5-7.6 9-1.9 4-2.8 8.8-2.8 14.6 0 5.6.9 10.4 2.6 14.4s4.2 7.1 7.4 9.2c3.2 2.1 6.8 3.2 11 3.2 2.2 0 4.5-.3 6.8-.8s4.5-1.4 6.4-2.8 3.5-3.1 4.7-5.4 1.8-5.1 1.8-8.6v-2.2h-19.5v-8.1h28.4V351h-5.4l-2.5-8.4c-2.1 3.4-5 5.9-8.8 7.4-3.7 1.5-7.8 2.2-12.3 2.2zm63.9 0c-5.2 0-9.6-1.1-13.2-3.5-3.6-2.3-6.3-5.4-8.2-9.3-1.9-3.9-2.9-8.3-2.9-13.2 0-5.3 1.1-9.8 3.2-13.6 2.1-3.8 5-6.8 8.6-8.9 3.6-2.1 7.7-3.1 12.2-3.1 3.9 0 7.4.8 10.4 2.4s5.5 3.7 7.5 6.3 3.4 5.6 4.3 9c.9 3.3 1.2 6.8 1 10.3h-38.2c.1 4.1 1.1 7.4 2.8 9.8 1.7 2.4 3.7 4.1 6.1 5.1 2.3 1 4.5 1.4 6.5 1.4 2.8 0 5.1-.4 7.1-1.3 1.9-.9 3.4-2.1 4.5-3.6l8.1 2.4c-1.8 2.9-4.4 5.2-7.7 7.1-3.5 1.8-7.5 2.7-12.1 2.7zm-15.2-30.4h29.2c0-2.3-.6-4.6-1.8-6.7-1.2-2.1-2.8-3.9-4.9-5.2-2.1-1.4-4.6-2.1-7.6-2.1-2.5 0-4.8.5-7 1.4s-4 2.4-5.4 4.5-2.3 4.8-2.5 8.1zm64.9 30.4c-2.9 0-5.7-.5-8.5-1.4-2.8-.9-5.2-2.3-7.4-4.1-2.2-1.8-3.8-4.1-5-7l8.1-3c.7 2.9 2.4 5.1 4.9 6.4s5.1 2 7.8 2c2 0 3.9-.3 5.7-.9 1.8-.6 3.2-1.5 4.3-2.6 1.1-1.1 1.7-2.4 1.7-3.9 0-2.7-1.1-4.7-3.2-5.8-2.2-1.1-4.8-2-7.8-2.6l-6.9-1.4c-2.4-.5-4.6-1.3-6.7-2.2-2.1-1-3.7-2.3-5-4.1s-1.9-4.2-1.9-7.2.9-5.5 2.8-7.5 4.2-3.6 7.2-4.6c2.9-1.1 5.9-1.6 9.1-1.6 3.9 0 7.7.8 11.2 2.5 3.5 1.6 6 4.2 7.5 7.6l-7.9 2.9c-.9-2-2.4-3.5-4.5-4.5-2.2-1-4.4-1.4-6.8-1.4-2.5 0-4.8.6-6.9 1.7-2.1 1.1-3.1 2.8-3.1 4.9 0 2.1.9 3.7 2.7 4.6 1.8 1 4 1.7 6.5 2.2l6.5 1.3c2.7.5 5.2 1.3 7.6 2.3 2.4 1 4.4 2.5 5.9 4.4 1.5 2 2.3 4.7 2.3 8.2 0 3.1-1 5.8-2.9 8s-4.4 3.9-7.5 5.1c-3.1 1.1-6.4 1.7-9.8 1.7zm44.1 0c-3.1 0-6-.6-8.6-1.7s-4.7-2.8-6.2-4.9c-1.5-2.1-2.3-4.7-2.3-7.7 0-3.9 1.4-7 4.2-9.3 2.8-2.3 6.7-4 11.7-5.2 5-1.2 10.9-2.2 17.6-3 .1-4.2-.7-7.4-2.5-9.7-1.8-2.3-4.7-3.4-8.7-3.4-3 0-5.5.7-7.3 2.1-1.9 1.4-3.1 3.2-3.7 5.6l-8.1-2.4c1.3-3.8 3.7-6.8 7.2-8.9 3.4-2.1 7.4-3.1 11.8-3.1 6.9 0 11.9 1.6 15 4.9 3.2 3.2 4.8 8.3 4.8 15.2v11.6c0 4.1.2 7.7.5 10.7.3 3 .7 5.7 1.2 8h-7.7l-2-6.8c-1.5 2.5-3.6 4.4-6.3 5.8s-6.3 2.2-10.6 2.2zm1.8-6.7c2.6 0 5.1-.5 7.4-1.4 2.3-.9 4.2-2.5 5.7-4.8s2.2-5.3 2.2-9.1v-3.1c-5.1.5-9.5 1.2-13.2 1.9-3.7.8-6.6 1.8-8.6 3.2-2 1.4-3.1 3.2-3.1 5.5s.9 4.2 2.6 5.6c1.6 1.5 4 2.2 7 2.2zM553 351h-8.4v-49.6h6.2l2.2 7.5c1.4-2.3 3.3-4.3 5.8-5.9s5.5-2.4 9.2-2.4c3.8 0 6.9.8 9.2 2.3 2.3 1.5 4 3.7 5.1 6.4 2-3.1 4.4-5.3 7.2-6.6 2.8-1.4 6-2 9.5-2 5.7 0 9.8 1.8 12.3 5.2s3.7 8.1 3.7 13.8V351h-8.4v-28.9c0-2.5-.2-4.9-.8-7.1-.5-2.2-1.5-3.9-3-5.2-1.5-1.3-3.8-2-6.8-2-3.6 0-6.5 1.4-8.7 4.2s-3.2 6.8-3.2 12.1V351h-8.4v-28.9c0-2.5-.2-4.9-.8-7.1-.5-2.2-1.5-3.9-3-5.2-1.5-1.3-3.8-2-6.8-2-3.6 0-6.5 1.4-8.7 4.2-2.2 2.8-3.3 6.8-3.3 12.1V351zm95.8 0h-6.3c-3.1 0-5.5-.3-7.2-1-1.7-.6-2.9-1.9-3.5-3.6s-1-4.4-1-7.8v-30.5h-8.4v-6.7h8.4v-12.5h8.4v12.5h9.6v6.7h-9.6v29.1c0 2.5.2 4.2.8 5.1.5.9 1.9 1.3 4.3 1.3h4.5v7.4zm30.4 0h-8.7l-17.7-49.6h9.1l13 38.6 12.9-38.6h9.1L679.2 351zm45.8 1.2c-5.2 0-9.6-1.1-13.2-3.5s-6.3-5.4-8.2-9.3-2.8-8.3-2.8-13.2c0-5.3 1.1-9.8 3.2-13.6 2.1-3.8 5-6.8 8.6-8.9 3.6-2.1 7.7-3.1 12.2-3.1 3.9 0 7.4.8 10.4 2.4s5.5 3.7 7.5 6.3 3.4 5.6 4.3 9c.9 3.3 1.2 6.8 1 10.3h-38.2c.1 4.1 1 7.4 2.8 9.8 1.7 2.4 3.7 4.1 6 5.1s4.5 1.4 6.5 1.4c2.8 0 5.1-.4 7-1.3s3.4-2.1 4.5-3.6l8.1 2.4c-1.8 2.9-4.4 5.2-7.7 7.1-3.4 1.8-7.4 2.7-12 2.7zm-15.2-30.4H739c0-2.3-.6-4.6-1.8-6.7-1.2-2.1-2.8-3.9-4.9-5.2-2.1-1.4-4.6-2.1-7.5-2.1-2.5 0-4.8.5-7 1.4-2.2.9-4 2.4-5.5 4.5-1.4 2.1-2.3 4.8-2.5 8.1zm56.4 29.2h-8.4v-49.6h6.1l2.7 9.2c1.7-3 4.1-5.4 7.1-7.2 3-1.8 6.5-2.8 10.6-2.8v8.7h-1.5c-.5 0-1 0-1.4.1-5.7.5-9.6 2.4-11.9 5.9-2.2 3.5-3.3 8.3-3.3 14.4V351zm50.1 1.2c-3.9 0-7.1-.8-9.8-2.4-2.7-1.6-4.8-3.7-6.3-6.4L798 351h-6.2v-66.8h8.4v25c1.5-2.6 3.6-4.7 6.3-6.2s5.9-2.4 9.8-2.4c3.8 0 7.3 1 10.5 3s5.8 5 7.8 8.8c2 3.8 2.9 8.5 2.9 13.9 0 5.5-1 10.1-2.9 14-2 3.8-4.6 6.8-7.8 8.8-3.2 2.1-6.7 3.1-10.5 3.1zm-2.2-7.2c4.3 0 7.7-1.6 10.2-4.9 2.6-3.3 3.9-7.8 3.9-13.7 0-5.9-1.3-10.5-3.9-13.8-2.6-3.2-6-4.9-10.2-4.9-4.3 0-7.7 1.6-10.2 4.9-2.6 3.2-3.8 7.8-3.8 13.8 0 5.9 1.3 10.4 3.8 13.7 2.5 3.3 5.9 4.9 10.2 4.9zm48.2 7.2c-3.1 0-6-.6-8.6-1.7s-4.7-2.8-6.2-4.9c-1.5-2.1-2.3-4.7-2.3-7.7 0-3.9 1.4-7 4.1-9.3 2.8-2.3 6.7-4 11.7-5.2s10.9-2.2 17.7-3c.1-4.2-.7-7.4-2.5-9.7-1.8-2.3-4.7-3.4-8.7-3.4-3 0-5.5.7-7.3 2.1-1.9 1.4-3.1 3.2-3.7 5.6l-8.1-2.4c1.3-3.8 3.7-6.8 7.1-8.9 3.4-2.1 7.4-3.1 11.9-3.1 6.9 0 11.9 1.6 15 4.9 3.2 3.2 4.8 8.3 4.8 15.2v11.6c0 4.1.2 7.7.5 10.7.3 3 .7 5.7 1.2 8h-7.7l-2-6.8c-1.5 2.5-3.6 4.4-6.3 5.8-2.8 1.5-6.3 2.2-10.6 2.2zm1.8-6.7c2.6 0 5.1-.5 7.4-1.4 2.3-.9 4.2-2.5 5.7-4.8s2.2-5.3 2.2-9.1v-3.1c-5.1.5-9.5 1.2-13.2 1.9-3.7.8-6.6 1.8-8.7 3.2s-3 3.2-3 5.5.9 4.2 2.5 5.6c1.7 1.5 4 2.2 7.1 2.2zm45.3 5.5H901v-49.6h6.2l2.2 7.5c1.4-2.3 3.4-4.3 5.9-5.9s5.9-2.4 10.1-2.4c6 0 10.2 1.8 12.7 5.2 2.5 3.5 3.7 8.1 3.7 13.8V351h-8.4v-28.9c0-2.5-.2-4.9-.7-7.1-.5-2.2-1.5-3.9-3-5.2-1.6-1.3-4-2-7.2-2-4.1 0-7.3 1.4-9.6 4.2-2.3 2.8-3.5 6.8-3.5 12.1V351zm63.2 1.2c-3.7 0-7.2-1-10.5-3.1-3.3-2-5.9-5-7.8-8.8-2-3.8-2.9-8.5-2.9-14s1-10.1 2.9-13.9c2-3.8 4.6-6.8 7.8-8.8 3.3-2 6.8-3 10.5-3 3.9 0 7.2.8 9.9 2.4s4.7 3.6 6.2 6.2v-25h8.4v48.1c0 1.7.1 4.1.2 7.4.1 3.2.6 7 1.5 11.4h-7.9l-2.2-7.5c-1.5 2.7-3.5 4.8-6.2 6.4-2.7 1.4-6 2.2-9.9 2.2zm2.2-7.2c4.3 0 7.7-1.6 10.2-4.9 2.6-3.3 3.8-7.8 3.8-13.7 0-5.9-1.3-10.5-3.8-13.8-2.6-3.2-6-4.9-10.2-4.9-4.3 0-7.7 1.6-10.2 4.9-2.6 3.2-3.9 7.8-3.9 13.8 0 5.9 1.3 10.4 3.9 13.7 2.5 3.3 5.9 4.9 10.2 4.9z" class="st0"/></svg>