<?xml version="1.0" encoding="utf-8"?>
<!-- Generator: Adobe Illustrator 24.0.1, SVG Export Plug-In . SVG Version: 6.00 Build 0)  -->
<svg version="1.1" id="Ebene_1" xmlns="http://www.w3.org/2000/svg" xmlns:xlink="http://www.w3.org/1999/xlink" x="0px" y="0px"
	 viewBox="0 0 484.8 396.3" style="enable-background:new 0 0 484.8 396.3;" xml:space="preserve">
<style type="text/css">
	.st0{fill-rule:evenodd;clip-rule:evenodd;fill:#494949;}
	.st1{fill:none;}
	.st2{fill:#494949;}
	.st3{font-family:'ProbaPro-Medium';}
	.st4{font-size:91.7869px;}
</style>
<g>
	<path class="st0" d="M314.6,133.7v-12.4h-70.7h-70.7v12.4h70.7H314.6z"/>
	<path class="st0" d="M314.6,108.8V96.4h-70.7h-70.7v12.4h70.7H314.6z"/>
	<path class="st0" d="M243.9,84.1V71.7h-35.4h-35.3v12.4h35.3H243.9z"/>
</g>
<path class="st1" d="M147.8,61.3v77.8c0.8,68.3,83.3,100.5,95.5,104.9c1.5-0.6,4.3-1.6,7.8-3c12-5.8,31.6-20.4,10.6-49.5
	c0,0,43.6,10,65.2-9.9c7.3-12.2,11.9-26.4,11.9-42.5V61.3"/>
<path class="st2" d="M289.9,246.5l50.9,26.8c-0.6,3.6-3.7,6.3-7.4,6.3H332l-51.8-27.3c-17.2,9.8-31.9,15.4-36.9,17.2
	c-5.1-1.8-20.2-7.6-37.8-17.8l-51.2,27.9h-1.2c-3.7,0-6.8-2.7-7.4-6.3l50.3-27.4c-22.3-14.4-46.3-35.6-57.9-64.3v90.5
	c0,8.3,6.7,15,15,15h180.3c8.3,0,15-6.7,15-15v-89.7C336.8,211,312.4,232.2,289.9,246.5L289.9,246.5z"/>
<path class="st2" d="M293.6,21.9c-29.3-5.1-50.3-21.1-50.3-21.1s-21,15.9-50.3,21.1c-27.4,4.8-54.9-3.2-54.9-3.2v42.5v77.9
	c0.4,33.4,18.6,63.9,52.5,88.1c25.3,18,50.1,26.1,51.1,26.5l1.5,0.5l1.5-0.5c1.1-0.3,26.1-8.5,51.5-26.5
	c34.2-24.2,52.2-54.7,52.2-88.1V61.3V18.8C348.5,18.8,321,26.7,293.6,21.9L293.6,21.9z M338.8,139.1c0,16.1-4.7,30.3-11.9,42.5
	c-21.6,19.9-65.2,9.9-65.2,9.9c21,29.1,1.4,43.8-10.6,49.5c-3.5,1.5-6.2,2.5-7.8,3c-12.2-4.4-94.7-36.6-95.5-104.9V61.3V32.1
	c29.6,3.2,37.8,1.9,48.6-0.2c26-4.9,40-13.4,47-18.2c7,4.8,20.9,13.3,46.9,18.2c10.8,2,19,3.4,48.6,0.2v29.1L338.8,139.1
	L338.8,139.1z"/>
<path class="st1" d="M-36.2,326.1h558.1v93.6H-36.2L-36.2,326.1z"/>
<text transform="matrix(1 0 0 1 -4.7251 394.9231)" class="st2 st3 st4">Sa</text>
<text transform="matrix(1 0 0 1 87.3749 394.9231)" class="st2 st3 st4">nktionsfrei </text>
</svg>
