<svg xmlns="http://www.w3.org/2000/svg" viewBox="0 0 762 152">
	<path
		d="M189.5 64.9c-3.7-3.8-10.4-7-16.5-7-9.3 0-12.9 7-12.9 12.3 0 17.3 38.4 11.1 38.4 37.2 0 12.4-8.6 23.7-25.7 23.7-10.2 0-19.5-4.1-26.4-11.3l6.8-7c4.8 5.1 11.8 8.2 18.5 8.2 10.8 0 15.2-7.8 15.2-13.5 0-16.8-38.4-10.2-38.4-37.2 0-11.8 7.5-22.5 23.2-22.5 9.3 0 18.3 3.6 24.5 10.1l-6.7 7zm64.7 65.3c-.9.5-2.7.6-4.2.6-5.2 0-8.8-2.3-10.4-5.9-3.8 3.8-9.1 6.2-14.9 6.2-10.1 0-15.2-7.1-15.2-15.2 0-11.1 9.2-16.6 21.6-16.6 4.6 0 7.3.7 7.3.7v-5.7c0-4.3-2.7-8.5-10.2-8.5-3.9 0-8.6 1.2-11.4 3.9l-5.5-5.5c4.9-5 10.4-7.3 17.9-7.3 13.2 0 19.9 7.5 19.9 17.3v24.6c0 2.7 1.9 4.3 5.1 4.3v7.1zm-15.8-12.4v-10.4s-2.4-.8-6.4-.8c-7.3 0-11.7 2.6-11.7 8.1 0 3.8 2.1 7.5 7.9 7.5 3.4 0 7.6-1.4 10.2-4.4zm37.8-39.9v3.9c3.9-3.1 8.9-4.9 14.6-4.9 12 0 19.6 8.8 19.6 21.8V130h-10.7V98.8c0-7.2-4.6-12.3-11.6-12.3-5 0-9.2 1.7-12 4.8v38.9h-10.8V77.9h10.9zm49.5 52.2V43h10.8v57.3l18.8-22.5h12.8l-20.9 24.4 23.2 27.9h-12.7l-21.2-25.9v25.9h-10.8zm50.1-52.2h6.4V66.3h11.1v11.6h12.8v8.5h-12.8V113c0 5.3 3.3 9.1 8.5 9.1 1.5 0 3-.3 4.3-1v8.9c-2 .9-4.2 1.2-6.3 1.2-10.9 0-17.6-7.1-17.6-18.1V86.4h-6.4v-8.5zm47.6-22.4a6.7 6.7 0 0 1 0 13.4c-3.8 0-6.7-3-6.7-6.7-.1-3.7 2.8-6.7 6.7-6.7zm-5.5 22.4h10.8v52.2h-10.8V77.9zm50.4-1c16 0 27 10.9 27 27s-11 27.1-27 27.1c-16.1 0-27.1-10.9-27.1-27.1 0-16 10.9-27 27.1-27zm0 44.6c9.3 0 15.9-7.2 15.9-17.5s-6.6-17.5-15.9-17.5c-9.5 0-15.9 7.2-15.9 17.5s6.4 17.5 15.9 17.5zm50.3-43.6v3.9c3.9-3.1 8.9-4.9 14.6-4.9 12 0 19.6 8.8 19.6 21.8V130h-10.7V98.8c0-7.2-4.6-12.3-11.6-12.3-5 0-9.2 1.7-12 4.8v38.9h-10.8V77.9h10.9zM593 89.7c-2.1-2.2-6.4-3.9-9.5-3.9-4.6 0-6.6 3.5-6.6 6.3 0 4.1 4.3 5.6 9.9 7.9 6.7 2.8 13.6 6.2 13.6 15 0 8.2-6 16.1-17.9 16.1-7.1 0-13.6-2.7-17.9-7.3l6.2-6.3c2.7 3 7.1 4.8 11 4.8 5.7 0 7.9-3.8 7.9-6.8 0-3.6-3.1-5.1-9.5-7.7-6.8-2.7-13.9-6-13.9-15.3 0-8 5.3-15.4 16.4-15.4 6.3 0 12.4 2.3 16.6 6.5l-6.3 6.1zm15.5-11.8h7V60.8c0-11.4 7.5-18.7 18.9-18.7 2.1 0 4.4.2 6.4 1.2v8.9c-1.3-.7-2.9-1-4.4-1-5.7 0-9.8 3.9-9.8 9.6v17.1h14.2v8.5h-14.2v43.8h-11.1V86.4h-7v-8.5zm70-.5v9.3c-1.3-.3-2.7-.5-4.1-.5-5.3 0-10 2.8-12.8 7v36.9h-10.8V77.9h10.8v5.9c3.7-4.2 8.4-6.7 13.3-6.7 1.4 0 2.6.1 3.6.3zm17.7 29.7c1 8.7 7.1 14.4 16.6 14.4 5.3 0 9.8-1.9 12.7-5l6.4 6.7c-4.8 5-11.5 7.8-19.7 7.8-16.3 0-27.3-10.8-27.3-27.4 0-15.8 10-26.7 25.5-26.7 16.1 0 23.8 11.5 23.8 30.2h-38zm0-7.6h27.2c-.9-8-5.3-13.2-13-13.2-7.7-.1-13.1 5-14.2 13.2zm55.7-44a6.7 6.7 0 0 1 0 13.4c-3.8 0-6.7-3-6.7-6.7s2.9-6.7 6.7-6.7zm-5.5 22.4h10.8v52.2h-10.8V77.9zM95 70.7v-6.5H21.2v6.5h36.9zm0-13v-6.5H21.2v6.5h36.9zM58.1 44.8v-6.5H21.2v6.5h18.5zM82.1 129.5l26.6 14c-.3 1.9-1.9 3.3-3.9 3.3h-.8l-27-14.2c-9 5.1-16.7 8-19.2 9-2.6-.9-10.5-4-19.7-9.3l-26.7 14.6h-.6c-1.9 0-3.5-1.4-3.9-3.3l26.2-14.3c-11.5-7.7-24-18.7-30.1-33.7v47.2c0 4.3 3.5 7.8 7.8 7.8h94c4.3 0 7.8-3.5 7.8-7.8V96c-6 15-18.7 26-30.5 33.5z"
		fill="#000" />
	<path
		d="M84.1 12.4c-15.3-2.7-26.2-11-26.2-11s-11 8.3-26.2 11C17.3 14.9 3 10.7 3 10.7v62.8c.2 17.4 9.7 33.3 27.4 45.9 13.2 9.4 26.1 13.6 26.7 13.8l.8.3.8-.3c.6-.2 13.6-4.4 26.9-13.8 17.8-12.6 27.2-28.5 27.2-46V10.7c-.1 0-14.4 4.2-28.7 1.7zm23.6 61.1c0 8.4-2.4 15.8-6.2 22.2-11.2 10.4-34 5.1-34 5.1 11 15.2.7 22.8-5.5 25.8-1.8.8-3.2 1.3-4.1 1.6-6.4-2.3-49.5-19.1-49.9-54.7V17.7c15.4 1.7 19.7 1 25.3-.1 13.6-2.6 20.9-7 24.5-9.5 3.6 2.5 10.9 7 24.5 9.5 5.6 1.1 9.9 1.8 25.3.1v15.2c.1 0 .1 40.6.1 40.6z"
		fill="#000" />
</svg>