<svg xmlns="http://www.w3.org/2000/svg" id="Ebene_1" data-name="Ebene 1" viewBox="0 0 363.3 363.9"><defs><style>.cls-1{fill:#f26c5f}.cls-2{fill:#253c80}</style></defs><path d="M11.69 87.84c-2.57 0-5.15-.91-7.2-2.77-4.41-3.98-4.77-10.79-.79-15.2C6.12 67.19 64.09 4.22 172.23 0h.24l20.48.12C292.37 5.51 357.28 66.7 359.99 69.3c4.29 4.11 4.43 10.93.32 15.22-4.11 4.29-10.92 4.43-15.22.32-.6-.57-61.99-58.18-153.05-63.21l-19.21-.11C73.82 25.48 20.22 83.69 19.69 84.28a10.714 10.714 0 0 1-8 3.56ZM38.81 303.51c-.42.67-.87 1.15-1.35 1.43-.48.29-1.09.42-1.83.42-.78 0-1.56-.16-2.33-.5-.78-.34-1.62-.7-2.52-1.09-.9-.39-1.92-.75-3.05-1.09-1.13-.33-2.42-.5-3.87-.5-2.09 0-3.69.4-4.8 1.2-1.12.79-1.67 1.9-1.67 3.31 0 1.03.36 1.88 1.09 2.55.72.67 1.69 1.26 2.89 1.78 1.2.51 2.56 1 4.08 1.46 1.52.46 3.08.97 4.67 1.54 1.59.57 3.15 1.23 4.66 1.99 1.52.76 2.88 1.7 4.08 2.81 1.2 1.11 2.17 2.46 2.89 4.05.72 1.59 1.09 3.5 1.09 5.73 0 2.72-.49 5.23-1.49 7.53-.99 2.3-2.46 4.28-4.42 5.94-1.96 1.66-4.38 2.95-7.26 3.87-2.88.92-6.2 1.38-9.94 1.38-1.87 0-3.75-.18-5.62-.53-1.87-.35-3.68-.83-5.43-1.43-1.75-.6-3.37-1.32-4.85-2.15-1.48-.83-2.76-1.72-3.81-2.67l3.81-6.05c.43-.71.96-1.26 1.62-1.67.65-.41 1.49-.61 2.52-.61.96 0 1.81.21 2.57.64.76.42 1.58.88 2.47 1.38.88.49 1.92.95 3.1 1.38 1.18.42 2.67.64 4.48.64 1.27 0 2.35-.13 3.24-.4.88-.26 1.59-.63 2.12-1.09.53-.46.92-.97 1.17-1.54.25-.56.37-1.15.37-1.75 0-1.09-.37-1.99-1.11-2.7-.75-.71-1.71-1.31-2.92-1.83-1.2-.51-2.57-.99-4.11-1.43-1.54-.44-3.1-.95-4.69-1.51a37.17 37.17 0 0 1-4.69-2.04c-1.54-.8-2.91-1.8-4.11-3.02-1.2-1.22-2.17-2.71-2.92-4.48-.74-1.77-1.11-3.91-1.11-6.41 0-2.33.45-4.55 1.35-6.66.9-2.1 2.25-3.95 4.05-5.54 1.8-1.59 4.06-2.85 6.79-3.79 2.72-.93 5.9-1.4 9.54-1.4 1.98 0 3.9.18 5.75.53 1.85.35 3.6.85 5.22 1.49 1.63.64 3.11 1.39 4.45 2.25 1.34.87 2.53 1.81 3.55 2.83l-3.71 5.78ZM64.63 321.91c.53 4.59 1.92 7.93 4.19 9.99 2.26 2.07 5.18 3.1 8.75 3.1 1.91 0 3.55-.23 4.93-.69 1.38-.46 2.61-.97 3.69-1.54 1.08-.56 2.07-1.08 2.97-1.54.9-.46 1.85-.69 2.84-.69 1.3 0 2.3.48 2.97 1.43l4.77 5.88c-1.69 1.95-3.53 3.53-5.48 4.75a28.62 28.62 0 0 1-6.04 2.86c-2.07.69-4.13 1.17-6.2 1.43-2.07.27-4.04.4-5.91.4-3.85 0-7.47-.63-10.84-1.88-3.37-1.26-6.33-3.12-8.85-5.6-2.53-2.47-4.52-5.55-5.99-9.22-1.47-3.68-2.2-7.95-2.2-12.83 0-3.67.63-7.16 1.88-10.44 1.25-3.29 3.06-6.17 5.41-8.64 2.35-2.48 5.19-4.43 8.54-5.89 3.34-1.45 7.11-2.17 11.32-2.17 3.64 0 6.97.56 9.99 1.69 3.03 1.14 5.62 2.78 7.8 4.93 2.17 2.16 3.87 4.8 5.09 7.93 1.22 3.13 1.83 6.67 1.83 10.63 0 1.24-.05 2.24-.16 3.02-.11.78-.3 1.39-.59 1.85-.28.46-.66.78-1.14.96-.48.18-1.09.26-1.83.26h-31.7Zm20.68-9.54c0-1.31-.17-2.58-.51-3.82a9.177 9.177 0 0 0-1.64-3.31c-.76-.97-1.76-1.76-3-2.36-1.24-.6-2.74-.9-4.51-.9-3.11 0-5.55.89-7.32 2.68-1.77 1.79-2.93 4.35-3.5 7.71h20.46ZM107.04 299.11c3.32-2.94 7-5.12 11.05-6.55 4.05-1.43 8.39-2.15 13.02-2.15 3.32 0 6.32.54 8.98 1.62 2.67 1.08 4.93 2.58 6.79 4.51 1.86 1.93 3.28 4.22 4.27 6.87.99 2.65 1.49 5.55 1.49 8.69v34.35h-7.53c-1.56 0-2.73-.21-3.53-.63-.79-.42-1.46-1.31-1.99-2.65l-1.17-3.02c-1.38 1.17-2.7 2.2-3.98 3.08-1.27.88-2.59 1.64-3.95 2.25-1.36.62-2.81 1.08-4.35 1.38-1.54.3-3.24.45-5.12.45-2.51 0-4.79-.33-6.84-.98-2.05-.65-3.79-1.62-5.22-2.89-1.43-1.27-2.53-2.85-3.31-4.74-.78-1.89-1.16-4.08-1.16-6.55 0-1.98.49-3.98 1.48-6.02.99-2.03 2.71-3.88 5.15-5.56 2.44-1.68 5.72-3.08 9.86-4.22 4.14-1.13 9.35-1.76 15.64-1.91v-2.33c0-3.21-.66-5.54-1.99-6.97-1.33-1.43-3.21-2.15-5.65-2.15-1.94 0-3.54.21-4.77.64-1.24.42-2.34.9-3.31 1.43-.97.53-1.92 1.01-2.84 1.43-.92.42-2.01.63-3.29.63-1.13 0-2.09-.28-2.86-.85a7.295 7.295 0 0 1-1.91-2.01l-2.97-5.14Zm29.58 24.97c-3.29.14-5.99.42-8.11.85-2.12.43-3.8.96-5.04 1.6-1.23.63-2.09 1.36-2.57 2.17-.48.81-.72 1.69-.72 2.65 0 1.88.51 3.19 1.54 3.95 1.02.76 2.53 1.14 4.51 1.14 2.12 0 3.97-.37 5.56-1.11 1.59-.74 3.2-1.95 4.82-3.61v-7.64ZM215.98 321.91c.53 4.59 1.92 7.93 4.19 9.99 2.26 2.07 5.18 3.1 8.74 3.1 1.91 0 3.55-.23 4.93-.69 1.37-.46 2.6-.97 3.68-1.54 1.08-.56 2.07-1.08 2.97-1.54.9-.46 1.85-.69 2.84-.69 1.31 0 2.3.48 2.97 1.43l4.77 5.88c-1.69 1.95-3.53 3.53-5.48 4.75a28.62 28.62 0 0 1-6.04 2.86c-2.07.69-4.14 1.17-6.2 1.43-2.07.27-4.04.4-5.91.4-3.85 0-7.47-.63-10.84-1.88-3.37-1.26-6.33-3.12-8.85-5.6-2.53-2.47-4.52-5.55-5.99-9.22-1.47-3.68-2.2-7.95-2.2-12.83 0-3.67.63-7.16 1.88-10.44 1.25-3.29 3.06-6.17 5.41-8.64 2.35-2.48 5.19-4.43 8.54-5.89 3.34-1.45 7.11-2.17 11.32-2.17 3.64 0 6.97.56 9.99 1.69 3.02 1.14 5.62 2.78 7.8 4.93 2.17 2.16 3.87 4.8 5.09 7.93 1.22 3.13 1.83 6.67 1.83 10.63 0 1.24-.05 2.24-.16 3.02-.11.78-.3 1.39-.59 1.85-.28.46-.66.78-1.14.96-.48.18-1.09.26-1.83.26H216Zm20.67-9.54c0-1.31-.17-2.58-.5-3.82a9.177 9.177 0 0 0-1.64-3.31c-.76-.97-1.76-1.76-3-2.36-1.24-.6-2.74-.9-4.51-.9-3.11 0-5.55.89-7.32 2.68-1.77 1.79-2.93 4.35-3.5 7.71h20.46ZM310.08 291.47l-29.37 69.24c-.5 1.09-1.1 1.9-1.8 2.41-.71.51-1.84.77-3.39.77h-12.3l10.6-22.27-21.95-50.16h14.52c1.27 0 2.25.28 2.94.85s1.19 1.24 1.51 2.02l9.01 23.7a47.19 47.19 0 0 1 2.07 6.63c.39-1.13.78-2.27 1.17-3.39.39-1.13.79-2.24 1.22-3.34l8.17-23.59c.32-.81.88-1.5 1.7-2.04.81-.55 1.7-.82 2.65-.82h13.25ZM326.52 321.91c.53 4.59 1.92 7.93 4.19 9.99 2.26 2.07 5.18 3.1 8.75 3.1 1.91 0 3.55-.23 4.93-.69 1.38-.46 2.6-.97 3.68-1.54 1.08-.56 2.07-1.08 2.97-1.54.9-.46 1.85-.69 2.84-.69 1.31 0 2.3.48 2.97 1.43l4.77 5.88c-1.69 1.95-3.52 3.53-5.48 4.75a28.62 28.62 0 0 1-6.04 2.86c-2.07.69-4.14 1.17-6.2 1.43-2.07.27-4.04.4-5.91.4-3.85 0-7.47-.63-10.84-1.88-3.37-1.26-6.33-3.12-8.85-5.6-2.53-2.47-4.52-5.55-5.99-9.22-1.47-3.68-2.2-7.95-2.2-12.83 0-3.67.63-7.16 1.88-10.44 1.25-3.29 3.05-6.17 5.41-8.64 2.35-2.48 5.19-4.43 8.54-5.89 3.34-1.45 7.11-2.17 11.32-2.17 3.64 0 6.97.56 9.99 1.69 3.02 1.14 5.62 2.78 7.8 4.93 2.17 2.16 3.87 4.8 5.09 7.93 1.22 3.13 1.83 6.67 1.83 10.63 0 1.24-.05 2.24-.16 3.02-.11.78-.3 1.39-.59 1.85-.28.46-.66.78-1.14.96-.48.18-1.09.26-1.83.26h-31.7Zm20.68-9.54c0-1.31-.17-2.58-.5-3.82a9.177 9.177 0 0 0-1.64-3.31c-.76-.97-1.76-1.76-3-2.36-1.24-.6-2.74-.9-4.51-.9-3.11 0-5.55.89-7.32 2.68-1.77 1.79-2.93 4.35-3.5 7.71h20.46ZM188.67 317.74h-.01c-6.34-2.75-11.24-.29-14.8 1.5-3.28 1.65-4.44 1.53-6.61 1.28-2.34-.28-4.79-.97-7.19-3.69l.25 10.79c.89.68 1.88 1.32 3.08 1.84 6.35 2.74 11.24.29 14.81-1.5 3.27-1.64 5.07-2.04 7.56-1.8 1.4.13 4.99 1 6.55 3.35l-.5-9.87c-.91-.7-1.92-1.36-3.15-1.91Z" class="cls-2"/><path d="M219.19 153.78c0 7.94-2.55 15.28-6.84 21.29l14.77 14.87c8.02-9.89 12.84-22.47 12.84-36.16s-4.47-25.21-11.9-34.9l-14.88 14.8a36.533 36.533 0 0 1 6.01 20.1ZM182.41 190.56c-7.5 0-14.47-2.27-20.29-6.13l-14.88 14.8c9.74 7.55 21.92 12.1 35.17 12.1s24.66-4.28 34.24-11.41l-14.86-14.94c-5.63 3.51-12.27 5.58-19.39 5.58ZM182.41 117c7.65 0 14.75 2.35 20.64 6.36l14.87-14.78c-9.79-7.71-22.11-12.35-35.51-12.35s-26.03 4.75-35.88 12.63l14.76 14.85c5.99-4.22 13.26-6.72 21.12-6.72ZM145.63 153.78c0-7.2 2.11-13.9 5.7-19.58l-14.86-14.94c-7.25 9.63-11.61 21.56-11.61 34.52s4.56 25.48 12.14 35.23l14.87-14.77a36.584 36.584 0 0 1-6.24-20.46Z" class="cls-1"/><path d="M204.68 153.78c0 12.3-9.97 22.27-22.27 22.27s-22.27-9.97-22.27-22.27 9.98-22.27 22.27-22.27 22.27 9.97 22.27 22.27Z" class="cls-2"/><path d="M356.07 151.73c-1.65-1.84-41.02-45.14-110.05-63.97l-9.56-2.61-22.94-4.12 21.86 24.09c12.1 13.34 18.77 30.52 18.77 48.39 0 36.58-27.24 67.24-63.46 71.57 0 0-5.29.69-8.88.69s-9.09-.8-9.09-.8c-35.85-4.62-62.82-35.23-62.82-71.46 0-17.77 6.6-34.89 18.59-48.19l21.8-24.19-16.66 2.51-15.83 4.35C48.87 106.94 9.61 149.89 7.97 151.71l-6.26 6.96 6.12 7.08c2.65 3.06 65.92 74.95 163.26 80.39l.8.04h.13l19 .12h.73c105.98-4.17 162.55-77.96 164.9-81.1l5.22-6.96-5.81-6.48Zm-325.24 7.29c10.66-9.66 32.98-27.53 64.89-40.97a92.78 92.78 0 0 0-7.03 35.45c0 21.01 7.01 40.57 18.92 56.29-37.59-15.62-64.72-39.08-76.78-50.77Zm223.77 53.21c13.02-16.09 20.75-36.57 20.75-58.73 0-12.35-2.46-24.46-7.12-35.68 32.44 13.66 55.01 32 65.46 41.59-11.24 12.15-38.06 37.36-79.08 52.81Z" class="cls-2"/></svg>