<svg xmlns="http://www.w3.org/2000/svg" viewBox="0 0 2390.94 2157.67"><defs><style>.cls-1{fill:#17affa;}</style></defs><g id="Ebene_2" data-name="Ebene 2"><g id="Ebene_1-2" data-name="Ebene 1"><path class="cls-1" d="M1737.68,1313.45c15.27,44.83-13,84.06-33,107.37,0,0-4.27,3.37-2.25,3.81,104,37.88,195.6,88.09,340.9,80.7A549.58,549.58,0,0,0,2216,1466.55a786.26,786.26,0,0,1,77.47-28.7,421.14,421.14,0,0,1,93.42-12.54V1277.13h-6.07a823.25,823.25,0,0,0-85.78,15.7,505,505,0,0,0-74.56,26.44,767,767,0,0,1-151.13,52,416.17,416.17,0,0,1-181.67-7.39c-44.91-11.89-87.8-32.06-131.15-46.41a100.36,100.36,0,0,0-19.53-4.93"/><path class="cls-1" d="M1385.11,1257.18c0-6.27,2.25-12.32,2.92-18.82-22.45-1.35-40.41,0-59.28-1.57a119.44,119.44,0,0,1-24.48-6.28,43,43,0,0,1-20.44-10.32c-10.1-11.88-5.16-37-3.36-53.57a50.38,50.38,0,0,0,0-24,9,9,0,0,0-11-2l-17.06,6.5a67.44,67.44,0,0,1-33.24,4.93c-9.65,0-15.72-6.5-24.48-7.62a22.44,22.44,0,0,0-27.62,20.4c-1.12,13,2.47,30.26,0,42.59-2.25,19-19.76,23.76-40,24.88s-49-3.59-71.86-2.91a27.92,27.92,0,0,1,0,4.48v17.26a605.11,605.11,0,0,0,76.8,13.22,636.15,636.15,0,0,0,84.21,6.5h89.83a488.64,488.64,0,0,0,77.47-13.22"/><path class="cls-1" d="M1723.31,1337.21a194,194,0,0,0-10.1-23.76,726.68,726.68,0,0,0-36.38-63c-16.62-28.7-30.77-57.38-48.29-84.51,0-4,2-7.17,2.25-11.66a191.24,191.24,0,0,0-119,0,163.79,163.79,0,0,0-84.66,53.57l-2,2.25v-2.69a84.29,84.29,0,0,1,32.56-43.71,173.78,173.78,0,0,1,49.4-26.45,199,199,0,0,1,128.9-5.15,89.73,89.73,0,0,0,4-24.22,139.34,139.34,0,0,0-11.23-27.12,1176.3,1176.3,0,0,0-73.66-155.35c-2-3.36-4.49-7.62-7.19-11.43a41.54,41.54,0,0,0-7.63-11.2,89.68,89.68,0,0,0-28.75-6,254.11,254.11,0,0,0-92.07,8.29,191.71,191.71,0,0,0-89.82,48.2l-2.47,2.46,1.35-3.14a140.78,140.78,0,0,1,79.71-60.3,267.2,267.2,0,0,1,112.29-15.47,69.5,69.5,0,0,0-32.11-13.67c-12.58-3.59-26.28-6.05-38.85-8.29a154.69,154.69,0,0,1-12.8-29.82c0-3.58-1.8-7.39-3.15-10.53s-5.84-7.17-6.74-12.33,2-12.78,0-19.28-4.72-5.6-8.3-9.41a39.58,39.58,0,0,0-37.06-12.56,133.35,133.35,0,0,0-32.78,7.63,119.89,119.89,0,0,0-51.43,29.36,34.47,34.47,0,0,0-12.13,28.25c0,5.15,7,10.53,11,15.24A129.13,129.13,0,0,1,1315.5,873a36.3,36.3,0,0,1,6.74,18.16c0,6.28-12.58,17.27-18.87,20a45,45,0,0,1-22.45,2.91c-2.92-1.56-3.59-4.92-4.94-7.39a157.9,157.9,0,0,0-15-22.42,42.7,42.7,0,0,0-29.87-18.61A41.77,41.77,0,0,0,1211.3,871a134.75,134.75,0,0,0-34.36,32.74c-3.14,3.36-8.31,10.53-11.23,11a45.24,45.24,0,0,1-18.19-6.72,35,35,0,0,1-13.24-11,166.58,166.58,0,0,1,26.49-59.62,109.39,109.39,0,0,0,9.44-19.29,36.51,36.51,0,0,0-11.68-37.65,116.06,116.06,0,0,0-50.3-22.42,94,94,0,0,0-61.53,4.48c-4.5,2.47-11.23,6.73-12.58,12.78s0,16.59-1.79,23.76-3.82,8.52-5.4,13.68c-4.49,13.22-5.83,35.42-17.29,40.35a71.12,71.12,0,0,1-17.07,2.91c-17.51,2.24-38.4,0-48.72,10.31a239.18,239.18,0,0,1,109.59,20,130.74,130.74,0,0,1,70.29,60.3l1.79,4-3.37-3.58a177.54,177.54,0,0,0-64.9-43.49A211.17,211.17,0,0,0,917.8,893.37a814,814,0,0,0-58.16,101.77c-8.09,16.14-17.07,35.19-27.18,52.45-4.49,7.85-9.88,16.37-14.82,24.89a61.57,61.57,0,0,0-9.43,30.26,68,68,0,0,0,3.82,19.5,35.09,35.09,0,0,0,7.18,15.47,220.86,220.86,0,0,1,169.32,33.17,85.55,85.55,0,0,1,31.67,38.55l1.35,3.37-2.47-2.69a165.75,165.75,0,0,0-84.67-47.52,226.84,226.84,0,0,0-116.77,0,737.26,737.26,0,0,1-53.22,89.67,255.61,255.61,0,0,0-37.06,70.6,67.25,67.25,0,0,0-3.81,31.61,82.1,82.1,0,0,0,10.55,22.41A153.38,153.38,0,0,0,779,1427.1,290.19,290.19,0,0,0,864.13,1469c49,14.79,122.61,19.27,160.11-8.3a82.13,82.13,0,0,0,16.61-15.47,65,65,0,0,0,12.59-18.6,76.74,76.74,0,0,0,0-26c-4-60.74-12.14-117.9-11.69-179.32,19.77,0,38.18,1.57,58.17,0s43.34,0,49.18-11.66a62.68,62.68,0,0,0,2.24-32.05,89.42,89.42,0,0,1,0-33.18,31,31,0,0,1,27.62-16.58,97.36,97.36,0,0,1,22.46,7.17,65,65,0,0,0,37.28,3.36c11-3.36,22.46-11.66,33.23-11a39.85,39.85,0,0,1,17.07,6c20.66,15.24-8.08,62.76,9.88,81.81,9.66,9.87,31.44,8.3,51.65,9.2s36.83,0,55.24,0c-4,42.13-9.87,83.84-14.82,126a210.71,210.71,0,0,0,2.25,65,68.59,68.59,0,0,0,27.17,43.26,155.56,155.56,0,0,0,41.55,17.71,210.56,210.56,0,0,0,51,8.07,239.07,239.07,0,0,0,99-17.48,253.9,253.9,0,0,0,73-44.83,124.21,124.21,0,0,0,27.85-31.61,77.92,77.92,0,0,0,12.12-53.58m-716.36,84.29a49.19,49.19,0,0,1-37.06,25.33,134.83,134.83,0,0,1-40.86,5.6,331.8,331.8,0,0,1-59.74-9.86c-6.51-1.57-13-2.69-18.42-4.49a210.33,210.33,0,0,1-28.29-14.34,193.72,193.72,0,0,1-24.7-17.26,75.74,75.74,0,0,1-32.79-51.78,49.5,49.5,0,0,1,21.11-39.23l2-2v2.47a60.54,60.54,0,0,0-5.16,21.07,80,80,0,0,0,28.29,59,177.63,177.63,0,0,0,129.13,44.83,137.6,137.6,0,0,0,66.24-20.39l2-1.35Zm2.47-12.11c0,3.14-8.75,5.16-14.37,7.18a157.45,157.45,0,0,1-56.59,8.29,190.65,190.65,0,0,1-70.29-16.14,143,143,0,0,1-50.31-35.87,74.4,74.4,0,0,1-20.43-63,153.44,153.44,0,0,1,41.55-7.62,209.6,209.6,0,0,1,110.71,28,104,104,0,0,1,60.18,61.42,39.52,39.52,0,0,1,1.57,15.47Zm117.89-342.73c-4.71,2.69-9.65,7.17-15.94,5.15-8.53-7.62-1.57-18.61,2.25-26,11.45-23.75,19.76-51.33,30.31-75.76,7.64,0,17.52-5.15,24.93-1.12,2.7,22.42,0,51.11,2.25,73.52-9.66,13.23-29,16.14-44.92,24.22Zm209.75,4.7A244.29,244.29,0,0,1,1302,1052.3c-7.18-26.45-15-52.68-22.45-79.58,12.13,0,17.07-6.49,28.74-6.49a25.46,25.46,0,0,1,6.07,10.53c4.71,11.43,8.08,24,12.8,37s9,22.41,13.7,35.86c3.59,9,6.51,16.82-2.7,22.42Zm342.68,295.45a88.32,88.32,0,0,1-38.17,52.45,224.76,224.76,0,0,1-60.41,30.48,211,211,0,0,1-80.17,8.3,83.25,83.25,0,0,1-62-28.25,44.76,44.76,0,0,1-6.06-33.17,71.81,71.81,0,0,1,22.45-37,211.74,211.74,0,0,1,129.58-53.57,108.19,108.19,0,0,1,76.13,19.94,82.86,82.86,0,0,1-26.5,56.94,152.42,152.42,0,0,1-121.27,44.84,103.83,103.83,0,0,1-59.28-23.77c18,37.43,74.33,51.11,127.33,37a145.26,145.26,0,0,0,58.16-29.81,89.65,89.65,0,0,0,35.93-63.44v-3.36l1.57,2.69a38.22,38.22,0,0,1,1.57,21.07Z"/><path class="cls-1" d="M744.21,1411.41c0-2.47-2.92-3.59-4.49-5.16a110.65,110.65,0,0,1-29.42-44.83,80.11,80.11,0,0,1,0-52.9,89.69,89.69,0,0,0,6.06-13.9c-89.83,24.2-157.19,70.16-261.17,77.33a389.67,389.67,0,0,1-103.52-7.17,579.46,579.46,0,0,1-86.46-26.45c-26.95-10.09-52.77-22.42-80.17-32.72A1021.79,1021.79,0,0,0,0,1264.13v136.29A691.21,691.21,0,0,1,192.68,1439a646.24,646.24,0,0,0,177.63,53.58,495.14,495.14,0,0,0,204.8-19.72c58.39-18.39,108.69-46.63,168.42-63"/><path class="cls-1" d="M1391.18,1454.89q-6.84-10.89-12.58-22.42a159.07,159.07,0,0,1-3.37-97.28A530.24,530.24,0,0,1,1224.1,1365a566.22,566.22,0,0,1-139-17.71,166.26,166.26,0,0,0-17.74-3.82q2.72,20.64,3.37,41.47a194.77,194.77,0,0,1,0,43c-3.15,14.57-13.93,20.62-20,30.49,24.7,8.74,48.28,22.42,75.9,29.14a382.62,382.62,0,0,0,187.07-5.38,797.9,797.9,0,0,0,79-26.68"/><path class="cls-1" d="M2020.19,1150.26a1456.65,1456.65,0,0,0,43.11-215,945.09,945.09,0,0,0-9.43-241,806.26,806.26,0,0,0-93-261.37c-5.84-10.31-11.45-21.07-17.74-30.94s-13-19.5-19.32-29.14c-8.53-13-18.41-25.1-27.84-37.21A996,996,0,0,0,1788.21,218c-5.61-5.16-11-11-16.62-15.91s-12.35-9.19-18.19-13.9-12.12-9.42-18.42-13.68A884.51,884.51,0,0,0,1431.6,25.65,790.9,790.9,0,0,0,1196.93.77a1071.17,1071.17,0,0,0-115.2,10.54A795.73,795.73,0,0,0,978.88,33.72a740.38,740.38,0,0,0-89.83,35.42C845.49,89.31,803.72,110.38,764,132.8c-13.47,7.4-26.27,15.92-38.85,24.21-6.29,4.26-13,8.07-19.31,12.1s-11.91,9.42-17.74,13.9a870.93,870.93,0,0,0-154.5,160.28A841.48,841.48,0,0,0,382.66,695.22c-3.37,17.93-5.62,36.31-7.86,54.69a466.91,466.91,0,0,0-4.27,89.67c0,9.86,0,19.72,1.57,29.8,0,19.29,3.6,38.34,5.62,57.39,3.82,38.11,9,75.32,14.37,112.08,4,27.13,9.88,53.8,15.49,79.13a242.6,242.6,0,0,1,4.95,25.33c-10.11,0-19.32-1.8-28.75-3.36a244.11,244.11,0,0,1-26.72-6.28,1005.65,1005.65,0,0,1-141-53.79A609,609,0,0,0,1.8,1035v147.5c38.85,3.14,75.9,6,110,12.1a454.91,454.91,0,0,1,95.44,27.8,575.59,575.59,0,0,0,193.13,51.78,476.49,476.49,0,0,0,209.74-33.17c29.65-11.21,57.49-23.55,86.91-35.2a364.42,364.42,0,0,1,95.89-27.12c4.94-7.18,8.08-16.14,12.57-23.77a128.38,128.38,0,0,1-13.25-50.88,141.2,141.2,0,0,1,14.38-41.47c0-1.57,2.92-4.48,0-4.93a293.6,293.6,0,0,0-32.57,2.24c-5.61-19.5-13.92-37-19.53-55.81-2.7-9.64-5.39-19.51-8.31-29.37a227.63,227.63,0,0,1-5.39-32.5,547.86,547.86,0,0,1-4.49-139.88A493.83,493.83,0,0,1,850.42,538.75a432.39,432.39,0,0,1,37.06-38.55,468.29,468.29,0,0,1,323.15-132.71,499.2,499.2,0,0,1,134.74,16.59,480.57,480.57,0,0,1,106.22,44.83,471.08,471.08,0,0,1,212.66,240.75A434.34,434.34,0,0,1,1692.32,793a838.78,838.78,0,0,1-10.56,210.49,241,241,0,0,1-14.14,61.42c-8.76,0-15.72-3.37-24.48-3.82,4.26,17,16.4,26.67,18.86,44.83a93.79,93.79,0,0,1-6.73,41.47,63.88,63.88,0,0,0-4.5,12.11c0,1.79,2.25,3.36,3.37,5.6,3.37,6.06,6.52,12.78,9,17.71,64,8.08,114.54,35.19,168.88,56.94a486.35,486.35,0,0,0,187.51,37,539.78,539.78,0,0,0,190-34.74c27.17-9.64,53.9-22.42,82.42-29.82a445,445,0,0,1,95.22-17.25v-152c-138.79,18.84-219.86,98.19-366.94,106.7M752.07,1062.84A798.84,798.84,0,0,0,609.69,1111a492.63,492.63,0,0,1-162.13,28.25,1127,1127,0,0,1-31-139.21A903.09,903.09,0,0,1,400.4,845.18c-1.35,0,0-1.79,0-1.57,104,0,209.29,0,310.57,1.12a573.53,573.53,0,0,0,10.56,118.81,518.56,518.56,0,0,0,29.86,99.3ZM1021.54,379.6A475.79,475.79,0,0,0,821.68,529.79c-2,2.46-3.59,5.15-5.61,7.84a32,32,0,0,0-5.62,7.62C724,482,638.21,418.15,552,354.72A792.33,792.33,0,0,1,731.63,186.6,1008.75,1008.75,0,0,1,899.16,95.14a617.39,617.39,0,0,1,63.55-24.66C996,168,1028.51,266.4,1060.84,365c-13.25,5.83-26.72,9.64-39.3,15Zm606.11,165.88a473.93,473.93,0,0,0-110.71-105.13A651.46,651.46,0,0,0,1377,364.8c30.31-99.75,61.3-198.82,94.1-296.33a870.46,870.46,0,0,1,233.09,118.8,750.55,750.55,0,0,1,177.63,174.62c-83.76,61.64-168.64,121.72-252.64,182.91Zm359.75,606.57c-115.66-6.73-186.17-59-286.77-81.14,2.92-16.82,9.66-33.18,12.13-50.88,1.57-9.2,2.46-18.16,4-27.58s3.37-17.49,5-26.45c3.14-18.6,3.14-38.33,4.49-58.73s2.7-40.13,2.7-60.74V845h310.12a821.51,821.51,0,0,1-18.86,160.72c-10.34,50-20.44,98.18-33.24,146.37Z"/><path class="cls-1" d="M2387.13,1651.26V1505.1h-1.58a363.94,363.94,0,0,0-39.3,5.83s-25.15,5.83-37.05,9.64c-22.46,7.4-44.91,16.14-67.37,24.88-85.34,34.3-173.82,80-295.53,67.25a558.62,558.62,0,0,1-143.5-40.35,871,871,0,0,0-140.12-44.83,410,410,0,0,0-166.18,2.24c-23.81,5.83-46.71,14.34-70.29,22.41s-47.38,13.9-71.86,20a647.36,647.36,0,0,1-162.81,20.4c-13.92,0-28.52-2.24-42-3.81a951.53,951.53,0,0,1-185-44.84,632.61,632.61,0,0,0-71.42-20.39,390.7,390.7,0,0,0-164.38,6A1022.09,1022.09,0,0,0,592,1576.61a449.46,449.46,0,0,1-149.33,34.29,451.14,451.14,0,0,1-224.57-49.76,658.78,658.78,0,0,0-62-30A662.48,662.48,0,0,0,2,1500.84v127.1a947.71,947.71,0,0,1,146.64,37c44.91,15.92,89.83,36.32,134.74,50.22A489.59,489.59,0,0,0,446,1735.76,470.88,470.88,0,0,0,597.79,1703c43.34-15.92,86.91-37.22,132.72-50.89a285,285,0,0,1,79.27-12.55,347,347,0,0,1,83.09,9.42c48,11.65,89.83,32.94,136.08,48a586.4,586.4,0,0,0,157.2,28.24,551,551,0,0,0,163.94-18.82c24.47-6.05,48.05-13,71-21.07s44.92-17,67.38-24.22a366.6,366.6,0,0,1,162.8-12.77,417,417,0,0,1,71.86,20c22.46,7.84,44.92,16.59,67.37,25.33a615.3,615.3,0,0,0,184.37,46h44.92a536.85,536.85,0,0,0,89.82-2.24c52.1-6.73,89.83-30.7,134.74-49.76a421,421,0,0,1,146.64-37.43"/><rect class="cls-1" x="612.05" y="1968.78" width="109.04" height="39.46"/><polygon class="cls-1" points="1016.01 1847.6 976.44 2014.07 974.34 2014.07 930.79 1847.6 883.51 1847.6 839.85 2013.72 837.86 2013.72 798.29 1847.6 743.07 1847.6 811.48 2086.69 860.74 2086.69 906.16 1930.38 908.02 1930.38 953.56 2086.69 1002.82 2086.69 1071.23 1847.6 1016.01 1847.6"/><path class="cls-1" d="M547.67,1919.4a74.61,74.61,0,0,0-24.4-10.86,114.51,114.51,0,0,0-28.6-3.5q-21.48,0-37.83,6.54a66,66,0,0,0-26.5,18.44,62.46,62.46,0,0,0-13.77,28.25l46,3.74a27.49,27.49,0,0,1,10.51-14.72q7.94-5.94,21.36-6,12.74,0,19.62,6.07t7,17.17v.7a9.76,9.76,0,0,1-4.32,8.64q-4.32,2.91-13.89,4.44t-25.22,3a165.74,165.74,0,0,0-25.45,4.44,72.71,72.71,0,0,0-21.48,9.34,44.46,44.46,0,0,0-14.94,16.35q-5.49,10.15-5.49,25.1,0,17.75,7.71,29.65a49.18,49.18,0,0,0,21.25,17.86q13.42,6,30.58,6a71.75,71.75,0,0,0,23.47-3.51,53.42,53.42,0,0,0,17.39-9.92,50.47,50.47,0,0,0,11.56-14.83h1.4v24.87h47.17v-121q0-16-6.19-27.43A52.83,52.83,0,0,0,547.67,1919.4ZM521.4,2022.59a30.7,30.7,0,0,1-4.78,16.93,34.25,34.25,0,0,1-13.2,11.91,41.78,41.78,0,0,1-19.37,4.32q-11.44,0-18.92-5.25T457.78,2035a18.42,18.42,0,0,1,3.62-11.67,24.27,24.27,0,0,1,10.15-7.59,61.64,61.64,0,0,1,15.3-4.09l9.1-1.28c3.35-.54,6.7-1.13,10-1.75s6.35-1.44,9-2.22a26.25,26.25,0,0,0,6.42-2.8Z"/><path class="cls-1" d="M168.81,1971.82a86.93,86.93,0,0,0-22.65-14.37,151.1,151.1,0,0,0-28.72-9.33L96,1943a126,126,0,0,1-14.71-4.21,62.66,62.66,0,0,1-12.14-6,28,28,0,0,1-8.29-8.29,19.66,19.66,0,0,1-2.68-11.2,22.81,22.81,0,0,1,4.43-13.78,29.47,29.47,0,0,1,13.08-9.46q8.52-3.49,20.9-3.5,18.21,0,28.83,7.83t12,21.94h48.44q-.34-21.36-11.44-37.59t-31-25.33q-19.85-9.11-46.46-9.11-26.16,0-46.7,9.11t-32.34,25.33Q6.19,1895,6.3,1916.72q-.1,26.49,17.4,42.13t47.75,23l26,6.53a140.5,140.5,0,0,1,22.06,7q9.12,3.84,13.78,9.34a19.87,19.87,0,0,1,4.79,13.54,24,24,0,0,1-5.26,15.29Q127.6,2040.22,118,2044t-22.3,3.74a65.31,65.31,0,0,1-23.47-4,38.44,38.44,0,0,1-16.46-12q-6.06-8.06-6.88-20.09H0q.59,25.82,12.49,43.31t33.39,26.27q21.48,8.87,50.43,8.88,29.19,0,49.85-8.76t31.76-24.87q11.09-16.11,11.2-38.06a63.33,63.33,0,0,0-5.48-26.5A59.72,59.72,0,0,0,168.81,1971.82Z"/><path class="cls-1" d="M361.82,1927.69A73.09,73.09,0,0,0,335,1910.76a93.57,93.57,0,0,0-33-5.72q-26.39,0-46,11.68a79.25,79.25,0,0,0-30.24,32.57Q215,1970.17,215,1997.85q0,28.37,10.74,49.15a76.73,76.73,0,0,0,30.59,32q20,11.22,47.63,11.21,22.18,0,39.11-6.77t27.79-19.14a62.81,62.81,0,0,0,14.35-29l-46-3a30.66,30.66,0,0,1-7.47,11.44,31.56,31.56,0,0,1-11.8,7,46.91,46.91,0,0,1-15.17,2.34q-12.5,0-21.6-5.26A35.9,35.9,0,0,1,269,2032.87q-4.89-9.69-4.9-23v-.11H386.21V1996.1q0-22.89-6.42-39.93T361.82,1927.69Zm-97.65,51.25a38.89,38.89,0,0,1,4.95-17.63,36.87,36.87,0,0,1,13.54-13.9,38.29,38.29,0,0,1,20.08-5.25,37,37,0,0,1,19,4.79,33.36,33.36,0,0,1,13,13,38.12,38.12,0,0,1,4.67,19Z"/><path class="cls-1" d="M2337.51,1907.37v30.12h-1.86a67.45,67.45,0,0,0-9.7-14.71,48.11,48.11,0,0,0-16.34-12.6q-10.16-5.15-25.21-5.14a68.24,68.24,0,0,0-36.32,10.16q-16.45,10.15-26.38,30.58t-9.92,50.9q0,29.77,9.69,49.27t26.26,28.83a73.61,73.61,0,0,0,36.78,9.34q14.25,0,24.51-4.2a49.54,49.54,0,0,0,16.82-10.86,47.39,47.39,0,0,0,9.81-14.13h2.1v32.81q0,18.44-10.63,26.27t-26.73,7.93q-10.86,0-18.45-2.91a32.25,32.25,0,0,1-12-7.48,30,30,0,0,1-6.66-10l-46,6.18a55,55,0,0,0,13.2,25.45q10.15,11.32,27.31,17.86t41.45,6.66q25.68,0,45.41-7.82t31.06-23.12q11.19-15.41,11.21-38.29V1907.37Zm-4.09,116.16q-4.43,11.21-12.83,17.28t-20.32,6q-12.26,0-20.66-6.08t-12.73-17.39q-4.32-11.33-4.32-26.85,0-15.29,4.32-27t12.73-18.21q8.4-6.66,20.66-6.66,12,0,20.43,6.43t12.84,18.09q4.44,11.56,4.44,27.32T2333.42,2023.53Z"/><path class="cls-1" d="M1821.8,2033.92a27.22,27.22,0,0,0-19.84,8.18,26.68,26.68,0,0,0-8.18,19.6,27.93,27.93,0,0,0,28,28,26.71,26.71,0,0,0,13.9-3.75,30.11,30.11,0,0,0,10.15-10.14,27.09,27.09,0,0,0-4.44-33.74A27.21,27.21,0,0,0,1821.8,2033.92Z"/><path class="cls-1" d="M2018.6,1916.72q-19.72-11.68-46.93-11.68t-47.05,11.68a78.14,78.14,0,0,0-30.47,32.45q-10.74,20.77-10.74,48.56,0,27.55,10.74,48.45a79,79,0,0,0,30.47,32.45q19.85,11.57,47.05,11.56t46.93-11.56a78.81,78.81,0,0,0,30.59-32.45q10.74-20.9,10.74-48.45,0-27.78-10.74-48.56A77.91,77.91,0,0,0,2018.6,1916.72Zm-13.54,108.56q-4.21,12.27-12.49,19.38t-20.66,7q-12.51,0-21-7t-12.72-19.38a94.55,94.55,0,0,1,0-55.8q4.3-12.26,12.72-19.38t21-7.12q12.36,0,20.66,7.12t12.49,19.38a92.25,92.25,0,0,1,0,55.8Z"/><path class="cls-1" d="M2185.42,1904.81a43.23,43.23,0,0,0-26.61,8.64q-11.57,8.5-16.46,25.21h-1.87v-31.29h-48.21v179.32H2142V1985.24a37.74,37.74,0,0,1,4.9-19.38,35.26,35.26,0,0,1,13.54-13.07,39.7,39.7,0,0,1,19.61-4.79,87.77,87.77,0,0,1,11.33.81,65.68,65.68,0,0,1,9.69,1.87v-44.12a55.67,55.67,0,0,0-7.59-1.29A75.57,75.57,0,0,0,2185.42,1904.81Z"/><path class="cls-1" d="M1354.24,2048.52a43.4,43.4,0,0,1-7,.58,24.14,24.14,0,0,1-8.87-1.52,11.52,11.52,0,0,1-5.83-5.25c-1.41-2.58-2.11-6.15-2.11-10.74v-86.86h33.74v-37.36h-33.74v-43h-49.74v43h-24.51v37.36h24.51v93.39q-.11,17.64,7.37,29.19a43.9,43.9,0,0,0,20.89,17q13.54,5.49,31.52,4.79a84.7,84.7,0,0,0,16.46-2q6.78-1.53,10.51-2.69l-7.83-37Z"/><path class="cls-1" d="M1724.18,1913.21q-13.9-8.18-32.58-8.17-20.41,0-34,9.1A50.67,50.67,0,0,0,1638,1939h-2.11V1847.6h-48.33v239.09h49.74V1983q.12-11.55,4.44-19.73a30.59,30.59,0,0,1,12.14-12.61,36.53,36.53,0,0,1,18-4.31q15.2,0,23.58,9.22,8.54,9.21,8.41,25.79v105.31h49.73V1972.51q.12-21-7.7-36.07A54.62,54.62,0,0,0,1724.18,1913.21Z"/><path class="cls-1" d="M1207.09,1919.4a74.51,74.51,0,0,0-24.4-10.86,114.45,114.45,0,0,0-28.6-3.5q-21.48,0-37.83,6.54a65.92,65.92,0,0,0-26.49,18.44,62.38,62.38,0,0,0-13.78,28.25l46,3.74a27.42,27.42,0,0,1,10.5-14.72q8-5.94,21.36-6,12.74,0,19.62,6.07t7,17.17v.7a9.77,9.77,0,0,1-4.33,8.64q-4.32,2.91-13.89,4.44t-25.22,3a165.39,165.39,0,0,0-25.44,4.44,72.48,72.48,0,0,0-21.48,9.34,44.4,44.4,0,0,0-14.95,16.35q-5.49,10.15-5.49,25.1,0,17.75,7.71,29.65a49.18,49.18,0,0,0,21.25,17.86q13.42,6,30.59,6a71.73,71.73,0,0,0,23.46-3.51,53.58,53.58,0,0,0,17.4-9.92,50.6,50.6,0,0,0,11.55-14.83h1.4v24.87h47.17v-121q0-16-6.19-27.43A52.83,52.83,0,0,0,1207.09,1919.4Zm-26.27,103.19a30.7,30.7,0,0,1-4.78,16.93,34.18,34.18,0,0,1-13.2,11.91,41.76,41.76,0,0,1-19.38,4.32q-11.43,0-18.91-5.25T1117.2,2035a18.42,18.42,0,0,1,3.62-11.67,24.3,24.3,0,0,1,10.16-7.59,61.43,61.43,0,0,1,15.29-4.09l9.1-1.28c3.35-.54,6.7-1.13,10-1.75s6.34-1.44,9-2.22a26.6,26.6,0,0,0,6.42-2.8Z"/><path class="cls-1" d="M1456.05,1950.1a33.37,33.37,0,0,1,20.2-6.31q13.65,0,22,8.29t10.52,21.6h46.92q-1-20.78-11.32-36.19a68.71,68.71,0,0,0-27.9-23.93q-17.62-8.52-41.1-8.52-27.2,0-46.92,11.79A79,79,0,0,0,1398,1949.4q-10.62,20.77-10.62,48.33,0,27.19,10.51,48.1a78.92,78.92,0,0,0,30.35,32.69q19.85,11.67,47.4,11.67,23.92,0,41.44-8.75a67.77,67.77,0,0,0,27.43-24.28q10-15.64,11.21-36.2h-46.92a38.87,38.87,0,0,1-6,16.23,29.46,29.46,0,0,1-11.33,10.16,32.82,32.82,0,0,1-15.28,3.5,33.3,33.3,0,0,1-20.2-6.31q-8.64-6.3-13.43-18.32T1438,1997q0-16.92,4.79-28.83T1456.05,1950.1Z"/></g></g></svg>