<?xml version="1.0" encoding="UTF-8"?>
<svg id="Ebene_1" xmlns="http://www.w3.org/2000/svg" version="1.1" viewBox="0 0 190.8 33.3">
  <!-- Generator: Adobe Illustrator 30.5.0, SVG Export Plug-In . SVG Version: 2.1.4 Build 167)  -->
  <path d="M.4,24l-.4-2.7,2.1-.4V3L0,2.8V0h15.1l.7,6.7h-2.3l-1.4-3.5h-6.2v7h5.4v3.1h-5.4v7.4l5.7.8-.2,2.4H.4h0ZM17.7,24l-.4-2,2-.5v-11.6h-1.8c0,.1-.3-2-.3-2l4.3-.8,1.1,1.7c.5-.6,1-1,1.7-1.2.6-.3,1.3-.4,1.8-.4,1,0,1.9.3,2.7.8.8.5,1.3,1.2,1.7,2l-3.6,1.9-1.1-1.7c-.3,0-.7.1-1.2.4-.4.2-.8.6-1.2,1.2-.3.5-.5,1.3-.5,2.2v7.2l4.4,1v2h-9.5,0ZM36.7,24.1c-1,0-1.9-.2-2.7-.6-.7-.4-1.4-.9-1.8-1.6-.4-.7-.6-1.5-.6-2.4s.3-1.9.8-2.6c.6-.7,1.3-1.3,2.1-1.7.9-.4,1.9-.7,2.8-.9,1-.2,2-.3,2.9-.3v-2.6c0-.4-.2-.8-.7-1.1-.4-.3-1-.4-1.9-.4s-.5,0-.8,0c-.2,0-.5,0-.7.2l-.8,2.3-3.8-1.4c.5-1.2,1.3-2.1,2.4-2.8,1.2-.7,2.5-1.1,3.9-1.1s2.1.2,2.9.6c.9.3,1.6,1,2.1,1.7.5.8.8,1.8.8,3.1v8.2c0,.3,0,.5.2.7.1.1.3.2.5.2.1,0,.2,0,.3,0,.1,0,.2,0,.2-.1l.5,1.7c-.2.2-.5.4-.9.7-.4.2-.9.3-1.5.3s-1.2-.1-1.6-.4c-.4-.3-.7-.7-.9-1.2-.5.5-1.1.9-1.7,1.2-.7.3-1.5.5-2.2.5ZM37.3,21.3c.7,0,1.3-.2,1.8-.5.6-.4.9-.8,1.2-1.2v-3c-.5,0-1.1,0-1.6.2-.6,0-1.1.2-1.7.4-.5.2-.9.4-1.3.8-.3.3-.5.8-.5,1.4s.2,1,.5,1.4c.4.4.9.6,1.6.6ZM53.7,33.3c-1.3,0-2.4-.2-3.5-.7-1-.4-1.8-1.1-2.4-1.9-.6-.8-.9-1.7-.9-2.7s.3-2.1.9-2.8c.6-.7,1.2-1.3,2-1.7-.3-.3-.5-.6-.7-.9-.2-.4-.3-.8-.2-1.3,0-.6.1-1.1.4-1.5.3-.5.6-.9.9-1.2-.8-.5-1.4-1.2-1.9-2-.5-.9-.7-1.9-.7-3s.3-2.5.9-3.4c.6-.9,1.5-1.7,2.5-2.2,1-.5,2.1-.8,3.3-.8.8,0,1.6.1,2.3.4.8.3,1.4.6,2,1.1l3.5-1.8h.8c0,.1.4,3.2.4,3.2l-3.2.4c.3.5.5,1,.6,1.5.1.5.2,1.1.2,1.7,0,1.3-.3,2.5-1,3.4-.6.9-1.5,1.6-2.5,2.1-1,.5-2.1.7-3.3.7h-.6c-.2,0-.4,0-.6-.1l-.7,1v.6c0,0,3.6.8,3.6.8,1.1.3,2.1.6,2.9,1,.8.4,1.5.9,1.9,1.6.4.6.7,1.5.7,2.4s-.4,2.5-1.1,3.4c-.7,1-1.6,1.7-2.8,2.2-1.2.5-2.5.8-3.8.8ZM54.4,29.8c.7,0,1.4,0,2-.3.6-.2,1.2-.5,1.6-.8.4-.4.6-.8.6-1.3s-.2-.8-.6-1.1c-.4-.3-.9-.5-1.6-.7-.7-.2-1.4-.3-2.1-.5-.7-.1-1.4-.3-2.1-.5-.6.3-1.1.7-1.5,1.1-.3.5-.5,1-.5,1.5s.2.9.5,1.3c.3.4.8.7,1.4.9.6.2,1.4.3,2.2.3ZM54.2,16.9c1,0,1.8-.3,2.3-1,.5-.7.8-1.5.8-2.5s-.3-1.8-.8-2.4c-.5-.7-1.3-1-2.3-1s-1.8.3-2.3,1c-.5.7-.8,1.5-.8,2.4s.3,1.8.8,2.5c.5.7,1.3,1,2.3,1h0ZM65.1,24l-.4-2.7,2.1-.4V3l-2.1-.2V0h5.8c2.7,0,5,.4,6.9,1.3,2,.9,3.5,2.1,4.5,3.9,1.1,1.7,1.6,3.9,1.6,6.5s-.5,4.9-1.4,6.7c-.9,1.8-2.3,3.2-4.1,4.1-1.8.9-4,1.4-6.5,1.4,0,0-6.5,0-6.5,0ZM71.6,20.8c1.4,0,2.7-.2,3.7-.7,1-.4,1.8-1.1,2.5-1.8.6-.8,1.1-1.8,1.4-2.8.3-1.1.5-2.3.5-3.6s-.3-3.4-1-4.6c-.6-1.3-1.6-2.3-2.9-2.9-1.3-.7-2.8-1-4.6-1h-.4v17.6h1ZM93.7,24.1c-1.5,0-2.8-.3-3.9-1-1.2-.6-2.1-1.6-2.8-2.8-.7-1.2-1-2.8-1-4.5s.3-3.4,1-4.7c.7-1.3,1.7-2.3,2.8-2.9,1.1-.7,2.4-1,3.7-1,.9,0,1.8.2,2.7.5.9.3,1.6.9,2.1,1.6.6.7.8,1.6.8,2.6s-.2,2-.7,2.7c-.5.7-1.1,1.2-1.9,1.7-.8.4-1.7.7-2.7.9-1,.2-2,.3-3,.3h-1.2c.2,1.1.6,2.1,1.3,2.9.7.8,1.8,1.1,3.3,1.1s1.8-.2,2.5-.5c.7-.3,1.2-.7,1.7-1.1l.7,2.6c-.3.3-.7.6-1.2.9-.6.3-1.2.5-1.9.7-.7.2-1.5.2-2.3.2h0ZM89.7,14.7h.9c.5,0,1.1,0,1.6,0,.6,0,1.2-.2,1.7-.4.5-.2.9-.5,1.2-.9.3-.4.5-.9.5-1.5s-.2-1.2-.6-1.5c-.4-.3-.9-.5-1.4-.5-.7,0-1.4.2-2,.7-.6.4-1,1-1.4,1.7-.3.7-.5,1.5-.6,2.4ZM101.9,24l-.3-2,1.9-.4v-11.6h-1.8c0,0-.3-2-.3-2l4.6-.8,1,1.3c.6-.4,1.2-.7,1.9-.9.7-.3,1.5-.4,2.3-.4,1,0,1.9.2,2.7.5.8.3,1.4.9,1.8,1.6.5.7.7,1.6.7,2.7v9.8l2,.4v2h-7.3v-2s1.8-.4,1.8-.4v-9c0-.9-.2-1.5-.6-1.9-.4-.4-1-.6-1.8-.6s-1.4.1-2,.4c-.6.3-1.1.6-1.4.9v10.2l2,.4v1.9s-7.1,0-7.1,0ZM127.3,24.1c-1.2,0-2.4-.1-3.6-.4-1.1-.2-2.1-.6-3.1-1l.3-6.2h2.6c0,.1.5,3.8.5,3.8.3.1.8.2,1.4.4.6.1,1.1.2,1.7.2.7,0,1.4-.1,2.1-.3.7-.2,1.2-.6,1.6-1,.4-.5.6-1.1.6-1.9s-.1-1.2-.4-1.6c-.3-.4-.7-.8-1.2-1.2-.6-.4-1.3-.8-2.2-1.2-.9-.4-1.8-.9-2.6-1.3-.8-.4-1.5-.9-2.2-1.4-.6-.5-1.2-1.2-1.6-1.9-.4-.7-.6-1.7-.6-2.7s.3-2.4,1-3.3c.7-.9,1.7-1.7,2.8-2.2,1.2-.5,2.5-.8,3.9-.8s2.2.1,3.2.3c1.1.2,2,.4,2.9.7l.5,6.2h-2.5l-1.6-3.7c-.4-.1-.8-.2-1.2-.2-.4,0-.9,0-1.3,0-.8,0-1.4.1-2,.4-.6.2-1,.6-1.3,1-.3.4-.4.9-.4,1.5s.1,1.1.4,1.5c.3.4.7.8,1.2,1.1.5.3,1.1.6,1.7.8s1.2.5,1.7.8c1.4.6,2.5,1.3,3.3,2,.9.7,1.5,1.4,1.8,2.2.4.8.6,1.7.6,2.7s-.2,2.3-.7,3.2c-.5.8-1.1,1.6-1.9,2.1-.8.6-1.7,1-2.6,1.3-1,.3-2,.4-3,.4h0ZM144.1,24.1c-.7,0-1.4-.1-2-.5-.6-.3-1.1-.8-1.4-1.5-.3-.7-.5-1.5-.5-2.6v-9.7c0,0-2.6,0-2.6,0l-.5-2.4.2-.4h3V1.3s3.2-.7,3.2-.7l.3.5v6s3.5,0,3.5,0c.1,0,.2,0,.2.2v2.5h-3.7v9.8c0,.7.1,1.1.3,1.4.2.2.5.3.9.3s.8-.1,1.3-.4c.5-.3.8-.4,1-.6l.8,2.4c-.3.3-.8.6-1.5.9-.7.3-1.5.5-2.4.5h0ZM154.5,24.1c-1,0-1.9-.2-2.7-.6-.7-.4-1.4-.9-1.8-1.6-.4-.7-.6-1.5-.6-2.4s.3-1.9.8-2.6c.6-.7,1.3-1.3,2.1-1.7.9-.4,1.9-.7,2.8-.9,1-.2,2-.3,2.9-.3v-2.6c0-.4-.2-.8-.7-1.1-.4-.3-1-.4-1.9-.4s-.5,0-.8,0c-.2,0-.5,0-.7.2l-.8,2.3-3.8-1.4c.5-1.2,1.3-2.1,2.4-2.8,1.2-.7,2.5-1.1,3.9-1.1s2.1.2,2.9.6c.9.3,1.6,1,2.1,1.7.5.8.8,1.8.8,3.1v8.2c0,.3,0,.5.2.7.1.1.3.2.5.2.1,0,.2,0,.3,0,.1,0,.2,0,.2-.1l.5,1.7c-.2.2-.5.4-.9.7-.4.2-.9.3-1.5.3s-1.2-.1-1.6-.4c-.4-.3-.7-.7-.9-1.2-.5.5-1.1.9-1.7,1.2-.7.3-1.5.5-2.2.5h0ZM155.2,21.3c.7,0,1.3-.2,1.8-.5.6-.4.9-.8,1.2-1.2v-3c-.5,0-1,0-1.6.2-.6,0-1.1.2-1.7.4-.5.2-.9.4-1.3.8-.3.3-.5.8-.5,1.4s.2,1,.5,1.4c.4.4.9.6,1.6.6ZM170.4,24.1c-1,0-1.9-.2-2.7-.6-.7-.4-1.4-.9-1.8-1.6-.4-.7-.6-1.5-.6-2.4s.3-1.9.8-2.6c.6-.7,1.3-1.3,2.1-1.7.9-.4,1.9-.7,2.8-.9,1-.2,2-.3,2.9-.3v-2.6c0-.4-.2-.8-.7-1.1-.4-.3-1-.4-1.9-.4s-.5,0-.8,0c-.2,0-.5,0-.7.2l-.8,2.3-3.8-1.4c.5-1.2,1.3-2.1,2.4-2.8,1.2-.7,2.5-1.1,3.9-1.1s2.1.2,2.9.6c.9.3,1.6,1,2.1,1.7.5.8.8,1.8.8,3.1v8.2c0,.3,0,.5.2.7.1.1.3.2.5.2.1,0,.2,0,.3,0,0,0,.2,0,.2-.1l.5,1.7c-.2.2-.5.4-.9.7-.4.2-.9.3-1.5.3s-1.2-.1-1.6-.4c-.4-.3-.7-.7-.9-1.2-.5.5-1.1.9-1.7,1.2-.7.3-1.5.5-2.2.5h0ZM171,21.3c.7,0,1.3-.2,1.8-.5.6-.4.9-.8,1.2-1.2v-3c-.5,0-1,0-1.6.2-.6,0-1.1.2-1.7.4-.5.2-.9.4-1.3.8-.3.3-.5.8-.5,1.4s.2,1,.5,1.4c.4.4.9.6,1.6.6ZM187,24.1c-.7,0-1.4-.1-2-.5-.6-.3-1.1-.8-1.4-1.5-.3-.7-.5-1.5-.5-2.6v-9.7c0,0-2.6,0-2.6,0l-.5-2.4.2-.4h3V1.3s3.2-.7,3.2-.7l.3.5v6s3.5,0,3.5,0c.1,0,.2,0,.2.2v2.5h-3.7v9.8c0,.7.1,1.1.3,1.4.2.2.5.3.9.3s.8-.1,1.3-.4c.5-.3.8-.4,1-.6l.8,2.4c-.3.3-.8.6-1.5.9-.7.3-1.5.5-2.4.5h0Z" fill="#6b21a8"/>
</svg>